<svg id="svg" version="1.1" width="400" height="400" viewBox="0 0 400 400" xmlns="http://www.w3.org/2000/svg" xmlns:xlink="http://www.w3.org/1999/xlink"><g id="svgg"><path id="path0" d="M78.600 94.261 C 76.545 94.604,76.698 94.975,79.952 97.538 C 84.618 101.212,94.586 112.830,96.689 117.044 C 96.914 117.494,97.094 129.797,97.134 147.400 C 97.171 163.680,97.296 183.030,97.412 190.400 C 97.849 218.282,96.974 304.661,96.220 308.000 C 94.301 316.497,91.804 321.720,87.489 326.262 C 83.629 330.326,83.415 330.224,95.520 330.096 C 117.973 329.858,129.173 324.631,137.591 310.462 C 143.575 300.388,143.588 300.231,143.590 235.971 C 143.591 207.465,143.705 183.575,143.844 182.880 C 144.471 179.745,145.529 180.206,150.314 185.698 C 164.415 201.883,178.102 213.080,205.775 231.072 C 251.463 260.777,266.200 288.132,257.997 328.013 C 254.263 346.167,241.635 372.657,230.829 385.006 C 227.166 389.191,228.072 389.579,236.857 387.590 C 263.855 381.478,291.599 366.090,302.638 351.108 C 310.269 340.750,311.183 314.873,304.569 296.445 L 303.189 292.600 303.200 205.310 C 303.210 120.335,303.231 117.895,303.999 113.310 C 305.063 106.953,307.318 102.332,311.495 97.956 C 315.511 93.746,315.575 93.824,308.394 94.148 C 291.833 94.895,281.656 99.725,272.293 111.278 C 258.872 127.839,258.532 129.044,258.218 161.200 C 258.109 172.310,257.842 186.800,257.624 193.400 C 257.406 200.000,257.221 210.131,257.214 215.913 L 257.200 226.426 264.459 234.107 C 275.789 246.094,285.512 258.800,283.355 258.800 C 283.221 258.800,279.574 255.335,275.252 251.100 C 267.417 243.424,265.807 241.920,248.807 226.400 C 227.068 206.552,207.843 187.207,183.015 160.194 C 175.184 151.674,163.744 140.076,145.800 122.466 C 143.600 120.306,140.720 117.755,139.400 116.796 C 136.357 114.584,128.816 107.254,126.751 104.502 C 124.914 102.052,117.723 98.273,112.086 96.794 C 105.643 95.105,83.551 93.433,78.600 94.261 " stroke="none" fill="#152a49" fill-rule="evenodd"></path><path id="path1" d="M294.000 35.121 C 294.000 35.306,295.575 36.647,297.500 38.103 C 324.981 58.882,345.329 83.520,359.227 112.843 C 362.933 120.662,363.904 123.019,367.783 133.600 C 380.202 167.479,382.655 206.112,374.755 243.400 C 370.803 262.056,362.153 283.366,351.052 301.800 C 336.969 325.185,319.595 344.096,300.303 357.036 C 296.314 359.712,294.070 361.482,293.644 362.291 C 292.539 364.385,286.247 368.419,274.600 374.499 C 270.420 376.681,267.270 378.378,267.600 378.270 C 276.856 375.242,297.064 364.091,309.200 355.315 C 347.255 327.796,370.818 293.147,382.374 247.713 C 387.823 226.293,389.445 194.789,386.171 174.000 C 383.407 156.450,374.722 126.804,370.258 119.681 C 369.747 118.866,367.829 115.320,365.995 111.800 C 361.194 102.586,353.708 90.396,348.677 83.600 C 341.527 73.942,326.441 57.979,318.000 51.142 C 308.290 43.277,294.000 33.738,294.000 35.121 M103.374 35.585 C 102.920 35.769,101.180 36.793,99.507 37.860 C 97.835 38.927,95.417 40.460,94.133 41.266 C 60.116 62.641,28.869 106.422,17.954 148.000 C 17.290 150.530,16.393 153.860,15.961 155.400 C 9.485 178.495,8.565 213.597,13.775 238.800 C 16.030 249.714,18.849 259.933,21.386 266.400 C 22.120 268.270,23.393 271.510,24.217 273.600 C 36.636 305.135,65.004 339.679,91.430 355.449 C 96.697 358.592,96.451 358.086,89.900 352.303 C 77.058 340.966,65.023 328.168,58.484 318.896 C 57.320 317.245,55.774 315.154,55.050 314.247 C 53.846 312.742,50.187 307.281,47.380 302.800 C 45.149 299.238,40.066 289.716,38.198 285.600 C 37.150 283.290,35.345 279.330,34.187 276.800 C 19.446 244.580,14.774 201.228,22.008 163.800 C 29.749 123.749,48.427 87.835,76.000 59.985 C 83.769 52.138,94.088 43.290,100.997 38.552 C 104.524 36.134,105.726 34.633,103.374 35.585 M199.430 89.574 C 198.716 96.816,199.243 117.376,200.165 118.298 C 200.827 118.961,201.007 117.193,201.083 109.267 C 201.225 94.461,200.178 81.986,199.430 89.574 M160.591 198.724 C 162.345 200.526,163.843 202.000,163.918 202.000 C 164.261 202.000,162.297 199.642,160.733 198.178 C 157.477 195.130,157.395 195.443,160.591 198.724 M172.344 214.995 C 172.797 215.763,175.560 219.277,178.484 222.806 C 199.144 247.739,203.650 260.473,200.237 284.274 C 199.547 289.081,199.034 291.272,198.100 293.400 C 195.974 298.240,195.412 300.671,196.174 301.719 C 196.527 302.203,197.577 303.663,198.508 304.962 C 199.438 306.261,200.830 307.656,201.600 308.063 C 202.370 308.470,203.630 309.257,204.400 309.812 C 205.170 310.367,206.430 311.223,207.200 311.714 C 208.049 312.256,208.993 313.407,209.600 314.641 C 210.150 315.760,210.980 317.146,211.445 317.722 C 212.168 318.617,212.328 319.510,212.550 323.885 C 212.836 329.536,212.832 329.386,212.763 331.500 C 212.736 332.325,213.002 333.540,213.355 334.200 C 213.707 334.860,213.996 335.805,213.998 336.300 C 214.004 338.637,219.424 332.692,222.659 326.800 C 223.323 325.590,224.816 322.980,225.976 321.000 C 234.951 305.681,236.470 289.608,230.511 273.018 C 225.213 258.265,214.777 246.296,193.254 230.288 C 190.250 228.054,178.811 218.962,174.143 215.100 C 171.879 213.226,171.280 213.191,172.344 214.995 M191.520 232.080 C 192.174 232.734,192.127 234.000,191.449 234.000 C 190.641 234.000,189.948 233.001,190.236 232.251 C 190.533 231.476,190.871 231.431,191.520 232.080 M220.484 259.124 C 220.746 259.386,220.812 259.600,220.631 259.600 C 220.450 259.600,220.512 259.853,220.768 260.161 C 221.124 260.590,221.112 261.013,220.717 261.954 C 220.066 263.505,218.288 262.937,218.075 261.111 C 217.830 259.005,219.219 257.859,220.484 259.124 M224.258 266.495 C 224.074 267.705,223.414 267.796,222.436 266.746 C 221.479 265.719,221.386 265.010,222.100 264.197 C 222.768 263.436,224.452 265.228,224.258 266.495 M227.980 272.305 C 228.635 274.661,228.529 275.200,227.410 275.200 C 225.787 275.200,224.693 272.496,225.617 270.769 C 226.226 269.631,227.461 270.434,227.980 272.305 M360.800 295.256 C 360.800 302.996,331.974 337.296,316.819 347.587 C 315.516 348.472,314.333 349.385,314.190 349.616 C 313.677 350.446,309.915 353.200,309.294 353.200 C 308.396 353.200,310.088 351.417,312.392 349.935 C 317.527 346.633,337.072 325.882,340.817 319.756 C 341.340 318.900,342.605 317.120,343.627 315.800 C 346.439 312.170,349.320 308.032,350.589 305.800 C 351.214 304.700,352.481 302.630,353.404 301.200 C 354.327 299.770,355.570 297.821,356.166 296.870 C 357.749 294.345,360.800 293.283,360.800 295.256 M246.664 326.300 C 245.433 328.318,243.051 333.317,242.210 335.648 C 241.625 337.272,240.157 340.835,238.949 343.567 C 228.405 367.400,222.854 389.200,227.329 389.200 C 227.532 389.200,227.471 388.927,227.194 388.593 C 226.273 387.483,228.486 374.448,230.430 369.530 C 230.893 368.358,231.543 366.590,231.873 365.600 C 232.569 363.516,233.425 362.451,233.948 363.017 C 234.625 363.750,235.997 368.031,236.253 370.208 C 236.591 373.085,236.581 373.090,240.303 368.100 C 245.058 361.724,253.944 342.211,252.671 340.938 C 252.573 340.840,252.301 341.308,252.067 341.980 C 251.367 343.987,250.000 343.376,250.000 341.056 C 250.000 340.573,249.728 339.789,249.395 339.314 C 247.956 337.260,247.090 333.155,247.324 329.500 C 247.520 326.446,247.281 325.289,246.664 326.300 M154.131 352.373 C 152.298 352.672,149.425 354.446,144.742 358.169 C 136.100 365.040,134.685 366.132,126.560 372.200 C 125.088 373.300,123.324 374.685,122.641 375.277 L 121.400 376.355 122.200 377.164 C 124.101 379.086,147.173 385.997,160.200 388.546 C 166.812 389.839,181.917 391.600,186.404 391.600 C 187.778 391.600,188.447 390.433,189.962 385.400 C 191.710 379.588,194.534 372.329,196.575 368.400 C 198.120 365.427,200.461 358.994,200.122 358.655 C 199.997 358.530,199.556 358.610,199.142 358.831 C 198.665 359.086,197.907 359.101,197.076 358.872 C 196.354 358.673,194.003 358.474,191.852 358.431 C 187.991 358.353,186.806 358.160,186.385 357.543 C 186.267 357.370,184.040 357.119,181.438 356.987 C 177.622 356.793,176.295 356.558,174.583 355.775 C 171.807 354.505,164.680 353.344,163.359 353.946 C 162.247 354.452,161.424 354.213,159.869 352.932 C 158.689 351.959,157.419 351.836,154.131 352.373 M303.769 357.337 C 303.518 357.991,300.400 359.798,300.400 359.289 C 300.400 358.909,303.181 356.800,303.683 356.800 C 303.843 356.800,303.882 357.042,303.769 357.337 " stroke="none" fill="#d9a452" fill-rule="evenodd"></path><path id="path2" d="M0.000 200.000 L 0.000 400.000 200.000 400.000 L 400.000 400.000 400.000 200.000 L 400.000 0.000 200.000 0.000 L 0.000 0.000 0.000 200.000 M125.118 24.845 C 125.037 25.090,121.029 27.695,116.211 30.634 C 72.491 57.307,43.387 95.114,28.786 144.200 C 5.379 222.892,33.151 307.985,98.281 357.131 C 111.125 366.823,106.713 367.051,91.800 357.466 C 28.920 317.049,-3.083 239.029,12.185 163.378 C 24.012 104.776,60.751 55.182,111.600 29.178 C 117.925 25.943,125.569 23.493,125.118 24.845 M280.400 25.902 C 284.654 27.545,293.536 32.178,299.040 35.625 C 327.930 53.720,352.186 80.344,367.221 110.463 C 368.577 113.178,370.289 116.400,371.025 117.623 C 378.250 129.616,387.832 165.240,389.183 185.132 C 394.989 270.586,350.324 343.512,270.824 378.382 C 253.530 385.967,228.822 392.466,225.776 390.230 C 222.728 387.992,226.761 369.478,234.410 350.600 C 245.631 322.906,246.811 318.757,247.103 305.953 C 247.423 291.915,245.518 283.524,239.161 270.961 C 236.129 264.969,235.989 264.169,237.807 263.196 C 242.335 260.773,227.533 247.110,203.800 231.805 C 198.740 228.542,191.720 223.942,188.200 221.583 C 181.490 217.086,179.200 215.748,179.200 216.326 C 179.200 217.130,186.507 223.474,193.660 228.882 C 204.722 237.245,207.289 239.323,211.329 243.189 C 232.613 263.557,239.927 286.257,232.955 310.315 C 230.883 317.465,223.333 331.010,214.402 343.600 C 203.440 359.051,195.329 373.970,191.434 385.846 C 189.178 392.727,189.109 392.800,184.920 392.800 C 170.772 392.800,148.369 388.222,128.200 381.209 C 117.892 377.625,117.592 377.075,123.522 372.617 C 147.961 354.245,172.596 331.167,182.040 317.800 C 202.925 288.238,205.136 264.272,189.254 239.600 C 184.981 232.963,182.569 229.808,173.050 218.413 C 170.208 215.011,166.388 210.241,164.561 207.813 C 162.734 205.386,159.615 201.330,157.630 198.800 C 155.645 196.270,152.447 192.130,150.524 189.600 C 146.677 184.538,146.391 184.250,145.803 184.837 C 145.537 185.102,145.364 203.181,145.296 237.920 C 145.172 300.018,145.231 299.143,140.522 308.600 C 132.061 325.589,118.810 331.972,91.960 331.994 C 80.332 332.003,78.835 331.076,84.001 327.064 C 88.417 323.634,91.349 318.870,93.393 311.800 C 95.477 304.592,95.402 308.433,95.372 210.758 L 95.344 119.316 94.307 117.558 C 89.225 108.940,80.106 99.435,73.582 95.958 C 71.199 94.688,70.336 93.503,71.182 92.660 C 71.970 91.874,98.604 92.096,104.981 92.941 C 124.440 95.522,137.925 103.145,149.746 118.246 C 151.316 120.251,153.770 123.281,155.200 124.978 C 161.595 132.568,167.764 139.817,167.984 140.000 C 168.315 140.274,175.676 148.702,178.913 152.512 C 181.180 155.181,189.247 164.225,192.400 167.634 C 213.598 190.550,238.758 215.497,244.834 219.623 C 246.240 220.578,248.292 222.283,249.395 223.411 C 251.812 225.886,253.354 226.424,254.565 225.213 C 255.396 224.382,255.402 224.185,255.834 179.689 L 256.268 135.000 257.549 130.214 C 263.951 106.302,282.176 92.862,309.205 92.123 C 320.398 91.817,321.337 92.494,315.674 96.786 C 309.444 101.510,306.708 106.891,305.398 117.000 C 304.852 121.218,304.781 132.071,304.816 206.556 L 304.856 291.312 306.260 295.756 C 312.172 314.466,312.033 339.330,305.960 349.306 C 303.715 352.994,304.270 352.882,309.800 348.527 C 339.045 325.498,365.082 282.121,372.991 243.248 C 390.079 159.265,356.235 77.593,285.419 31.918 C 276.754 26.329,275.159 25.189,275.418 24.770 C 275.706 24.305,277.063 24.613,280.400 25.902 M200.803 53.814 C 201.031 56.006,201.480 63.740,201.801 71.000 C 202.122 78.260,202.561 87.980,202.776 92.600 C 202.992 97.220,203.363 105.680,203.601 111.400 C 204.250 127.002,205.378 139.360,206.305 141.016 C 206.496 141.357,208.226 142.872,210.149 144.383 C 212.073 145.893,214.232 147.910,214.948 148.864 C 220.163 155.820,220.053 155.631,222.135 161.200 C 225.421 169.992,225.760 181.594,222.901 187.423 C 221.458 190.366,219.883 190.252,216.800 186.984 C 216.030 186.168,214.140 184.554,212.600 183.397 C 209.389 180.986,208.781 180.347,206.383 176.867 C 204.687 174.405,204.631 174.223,204.403 170.442 C 204.218 167.389,203.942 166.083,203.119 164.376 C 202.541 163.179,201.525 160.986,200.861 159.502 C 199.410 156.263,199.142 156.290,196.998 159.901 C 196.119 161.381,195.078 162.653,194.685 162.728 C 192.055 163.230,183.600 153.698,183.600 150.231 C 183.600 148.575,186.634 145.414,189.600 143.980 C 191.030 143.288,192.470 142.590,192.800 142.427 C 194.510 141.586,195.253 136.309,195.986 119.800 C 196.220 114.520,196.593 106.330,196.813 101.600 C 197.034 96.870,197.481 85.772,197.808 76.938 C 198.794 50.269,199.703 43.247,200.803 53.814 " stroke="none" fill="#fbfbfa" fill-rule="evenodd"></path><path id="path3" d="M151.498 187.600 C 152.434 188.971,163.585 200.096,165.126 201.195 C 165.277 201.303,162.073 197.973,158.006 193.795 C 153.939 189.618,150.535 186.110,150.441 186.000 C 150.347 185.890,150.823 186.610,151.498 187.600 M190.236 232.251 C 189.948 233.001,190.641 234.000,191.449 234.000 C 192.127 234.000,192.174 232.734,191.520 232.080 C 190.871 231.431,190.533 231.476,190.236 232.251 M218.371 259.255 C 217.696 260.516,218.084 262.123,219.200 262.684 C 220.418 263.295,221.682 261.262,220.768 260.161 C 220.512 259.853,220.450 259.600,220.631 259.600 C 221.174 259.600,220.057 258.655,219.400 258.559 C 219.065 258.510,218.602 258.823,218.371 259.255 M222.100 264.197 C 221.386 265.010,221.479 265.719,222.436 266.746 C 224.056 268.485,225.091 266.418,223.495 264.630 C 222.733 263.776,222.526 263.712,222.100 264.197 M225.617 270.769 C 224.693 272.496,225.787 275.200,227.410 275.200 C 228.529 275.200,228.635 274.661,227.980 272.305 C 227.461 270.434,226.226 269.631,225.617 270.769 M358.505 294.613 C 357.795 294.911,356.780 295.891,356.166 296.870 C 355.570 297.821,354.327 299.770,353.404 301.200 C 352.481 302.630,351.214 304.700,350.589 305.800 C 349.320 308.032,346.439 312.170,343.627 315.800 C 342.605 317.120,341.340 318.900,340.817 319.756 C 337.072 325.882,317.527 346.633,312.392 349.935 C 310.088 351.417,308.396 353.200,309.294 353.200 C 309.915 353.200,313.677 350.446,314.190 349.616 C 314.333 349.385,315.516 348.472,316.819 347.587 C 326.533 340.990,342.551 324.356,351.472 311.600 C 360.502 298.689,362.966 292.737,358.505 294.613 M247.320 356.900 C 246.651 357.835,245.519 359.770,244.803 361.200 C 243.504 363.795,237.358 372.400,236.803 372.400 C 236.642 372.400,236.394 371.414,236.253 370.208 C 235.997 368.031,234.625 363.750,233.948 363.017 C 233.425 362.451,232.569 363.516,231.873 365.600 C 231.543 366.590,230.893 368.358,230.430 369.530 C 229.453 372.001,227.339 381.664,226.954 385.414 C 226.637 388.517,227.052 389.224,229.149 389.146 C 230.081 389.111,230.278 389.029,229.700 388.918 C 228.293 388.647,228.613 387.538,230.829 385.006 C 235.362 379.826,250.103 355.200,248.671 355.200 C 248.596 355.200,247.989 355.965,247.320 356.900 M301.895 357.864 C 301.073 358.449,300.400 359.091,300.400 359.289 C 300.400 359.798,303.518 357.991,303.769 357.337 C 304.077 356.535,303.558 356.681,301.895 357.864 M294.370 359.842 C 288.367 366.293,268.537 377.440,253.891 382.598 C 248.539 384.483,248.527 384.951,253.875 383.191 C 270.175 377.826,291.675 366.310,293.832 361.789 C 294.290 360.830,294.897 359.765,295.181 359.423 C 296.029 358.401,295.416 358.718,294.370 359.842 M247.400 384.800 C 246.896 385.017,246.822 385.144,247.200 385.144 C 247.530 385.144,248.160 384.989,248.600 384.800 C 249.104 384.583,249.178 384.456,248.800 384.456 C 248.470 384.456,247.840 384.611,247.400 384.800 " stroke="none" fill="#ae6f21" fill-rule="evenodd"></path><path id="path4" d="M118.000 26.352 C 108.272 30.381,95.478 37.923,85.000 45.807 C 29.171 87.813,-0.264 161.193,10.632 231.200 C 18.649 282.706,49.038 329.980,91.800 357.466 C 106.713 367.051,111.125 366.823,98.281 357.131 C 33.151 307.985,5.379 222.892,28.786 144.200 C 43.387 95.114,72.491 57.307,116.211 30.634 C 127.355 23.835,128.041 22.194,118.000 26.352 M275.418 24.770 C 275.159 25.189,276.754 26.329,285.419 31.918 C 391.531 100.358,409.243 249.919,321.623 337.631 C 314.459 344.803,305.844 352.160,304.983 351.842 C 304.753 351.758,303.876 352.675,303.034 353.880 L 301.502 356.071 302.651 355.461 C 305.798 353.791,315.887 345.297,322.135 339.058 C 345.453 315.772,362.845 285.791,372.753 251.800 C 379.930 227.175,381.174 192.658,375.944 163.200 C 373.798 151.111,371.022 141.829,364.280 124.200 C 352.000 92.092,328.029 61.186,297.500 38.103 C 288.185 31.059,298.691 36.740,309.400 44.537 C 332.427 61.303,351.484 83.951,365.995 111.800 C 367.829 115.320,369.747 118.866,370.258 119.681 C 374.084 125.787,379.968 144.676,384.562 165.600 C 394.981 213.053,382.287 271.531,352.653 312.600 C 330.822 342.855,292.779 370.734,255.491 383.805 C 253.121 384.636,251.247 385.381,251.327 385.460 C 251.663 385.796,264.759 381.042,270.824 378.382 C 350.324 343.512,394.989 270.586,389.183 185.132 C 387.832 165.240,378.250 129.616,371.025 117.623 C 370.289 116.400,368.577 113.178,367.221 110.463 C 354.033 84.045,333.301 59.777,308.993 42.304 C 295.980 32.949,276.614 22.836,275.418 24.770 M104.162 36.052 C 103.743 36.521,102.319 37.646,100.997 38.552 C 94.088 43.290,83.769 52.138,76.000 59.985 C 48.427 87.835,29.749 123.749,22.008 163.800 C 14.774 201.228,19.446 244.580,34.187 276.800 C 35.345 279.330,37.150 283.290,38.198 285.600 C 40.066 289.716,45.149 299.238,47.380 302.800 C 50.187 307.281,53.846 312.742,55.050 314.247 C 55.774 315.154,57.320 317.245,58.484 318.896 C 65.023 328.168,77.058 340.966,89.900 352.303 C 96.451 358.086,96.697 358.592,91.430 355.449 C 65.004 339.679,36.636 305.135,24.217 273.600 C 23.393 271.510,22.120 268.270,21.386 266.400 C 18.849 259.933,16.030 249.714,13.775 238.800 C 8.565 213.597,9.485 178.495,15.961 155.400 C 16.393 153.860,17.290 150.530,17.954 148.000 C 28.869 106.422,60.116 62.641,94.133 41.266 C 95.417 40.460,97.835 38.927,99.507 37.860 C 103.710 35.178,105.600 34.444,104.162 36.052 M199.449 50.149 C 198.943 52.161,198.389 61.209,197.808 76.938 C 197.481 85.772,197.034 96.870,196.813 101.600 C 196.593 106.330,196.220 114.520,195.986 119.800 C 195.253 136.309,194.510 141.586,192.800 142.427 C 192.470 142.590,191.030 143.288,189.600 143.980 C 186.634 145.414,183.600 148.575,183.600 150.231 C 183.600 153.698,192.055 163.230,194.685 162.728 C 195.078 162.653,196.119 161.381,196.998 159.901 C 199.142 156.290,199.410 156.263,200.861 159.502 C 201.525 160.986,202.541 163.179,203.119 164.376 C 203.942 166.083,204.218 167.389,204.403 170.442 C 204.631 174.223,204.687 174.405,206.383 176.867 C 208.781 180.347,209.389 180.986,212.600 183.397 C 214.140 184.554,216.030 186.168,216.800 186.984 C 219.883 190.252,221.458 190.366,222.901 187.423 C 225.760 181.594,225.421 169.992,222.135 161.200 C 220.053 155.631,220.163 155.820,214.948 148.864 C 214.232 147.910,212.073 145.893,210.149 144.383 C 208.226 142.872,206.496 141.357,206.305 141.016 C 205.378 139.360,204.250 127.002,203.601 111.400 C 203.363 105.680,202.992 97.220,202.776 92.600 C 202.561 87.980,202.122 78.260,201.801 71.000 C 201.008 53.051,200.299 46.762,199.449 50.149 M200.793 94.030 C 201.216 101.482,201.154 117.780,200.700 118.233 C 199.591 119.342,199.212 115.708,199.181 103.700 C 199.136 86.395,200.048 80.926,200.793 94.030 M149.372 188.200 C 150.661 189.960,152.471 192.300,153.394 193.400 C 155.226 195.584,160.501 202.395,165.048 208.446 C 166.637 210.561,170.251 215.061,173.078 218.446 C 182.566 229.806,184.984 232.968,189.254 239.600 C 205.136 264.272,202.925 288.238,182.040 317.800 C 172.596 331.167,147.961 354.245,123.522 372.617 C 117.592 377.075,117.892 377.625,128.200 381.209 C 148.369 388.222,170.772 392.800,184.920 392.800 C 189.109 392.800,189.178 392.727,191.434 385.846 C 195.329 373.970,203.440 359.051,214.402 343.600 C 223.333 331.010,230.883 317.465,232.955 310.315 C 239.927 286.257,232.613 263.557,211.329 243.189 C 207.289 239.323,204.722 237.245,193.660 228.882 C 183.105 220.903,176.106 214.259,181.100 216.959 L 183.000 217.986 181.617 216.893 C 170.823 208.362,163.217 201.554,154.329 192.466 C 147.656 185.643,147.229 185.276,149.372 188.200 M174.143 215.100 C 178.811 218.962,190.250 228.054,193.254 230.288 C 228.641 256.608,239.652 279.254,231.582 309.117 C 230.726 312.284,229.252 315.408,225.976 321.000 C 224.816 322.980,223.323 325.590,222.659 326.800 C 219.424 332.692,214.004 338.637,213.998 336.300 C 213.996 335.805,213.707 334.860,213.355 334.200 C 213.002 333.540,212.736 332.325,212.763 331.500 C 212.832 329.386,212.836 329.536,212.550 323.885 C 212.328 319.510,212.168 318.617,211.445 317.722 C 210.980 317.146,210.150 315.760,209.600 314.641 C 208.993 313.407,208.049 312.256,207.200 311.714 C 206.430 311.223,205.170 310.367,204.400 309.812 C 203.630 309.257,202.370 308.470,201.600 308.063 C 200.830 307.656,199.438 306.261,198.508 304.962 C 197.577 303.663,196.527 302.203,196.174 301.719 C 195.412 300.671,195.974 298.240,198.100 293.400 C 199.034 291.272,199.547 289.081,200.237 284.274 C 203.650 260.473,199.144 247.739,178.484 222.806 C 171.298 214.134,169.832 211.532,174.143 215.100 M245.000 219.885 C 246.652 221.548,248.770 223.188,248.560 222.640 C 248.419 222.273,247.470 221.412,246.452 220.727 C 245.433 220.042,244.780 219.663,245.000 219.885 M236.851 258.201 C 239.041 260.698,239.360 262.365,237.807 263.196 C 235.989 264.169,236.129 264.969,239.161 270.961 C 245.518 283.524,247.423 291.915,247.103 305.953 C 246.811 318.757,245.631 322.906,234.410 350.600 C 226.314 370.582,222.560 388.616,226.117 390.444 C 226.845 390.818,226.912 390.805,226.500 390.369 C 223.465 387.158,229.207 365.367,238.633 344.323 C 239.649 342.056,241.163 338.400,241.998 336.200 C 243.688 331.744,246.431 326.323,247.110 326.097 C 247.421 325.993,247.485 326.991,247.326 329.475 C 247.090 333.156,247.952 337.254,249.395 339.314 C 249.728 339.789,250.000 340.573,250.000 341.056 C 250.000 343.312,251.310 343.976,252.060 342.100 C 260.975 319.809,260.389 294.642,250.531 276.410 C 247.114 270.089,240.384 260.964,236.956 258.001 L 235.800 257.003 236.851 258.201 M159.869 352.932 C 161.424 354.213,162.247 354.452,163.359 353.946 C 164.680 353.344,171.807 354.505,174.583 355.775 C 176.295 356.558,177.622 356.793,181.438 356.987 C 184.040 357.119,186.267 357.370,186.385 357.543 C 186.806 358.160,187.991 358.353,191.852 358.431 C 194.003 358.474,196.354 358.673,197.076 358.872 C 197.907 359.101,198.665 359.086,199.142 358.831 C 199.556 358.610,199.997 358.530,200.122 358.655 C 200.461 358.994,198.120 365.427,196.575 368.400 C 194.534 372.329,191.710 379.588,189.962 385.400 C 188.447 390.433,187.778 391.600,186.404 391.600 C 181.917 391.600,166.812 389.839,160.200 388.546 C 147.173 385.997,124.101 379.086,122.200 377.164 L 121.400 376.355 122.641 375.277 C 123.324 374.685,125.088 373.300,126.560 372.200 C 134.685 366.132,136.100 365.040,144.742 358.169 C 152.314 352.149,156.965 350.539,159.869 352.932 " stroke="none" fill="#f6d391" fill-rule="evenodd"></path><path id="path5" d="M71.700 92.389 C 69.934 93.145,70.779 94.568,73.950 96.175 C 79.821 99.150,89.362 109.171,94.307 117.558 L 95.344 119.316 95.372 210.758 C 95.402 308.433,95.477 304.592,93.393 311.800 C 91.349 318.870,88.417 323.634,84.001 327.064 C 78.835 331.076,80.332 332.003,91.960 331.994 C 118.810 331.972,132.061 325.589,140.522 308.600 C 145.231 299.143,145.172 300.018,145.296 237.920 C 145.375 197.812,145.514 185.126,145.877 184.763 C 146.245 184.395,147.664 185.590,152.143 190.043 C 173.747 211.521,178.743 215.609,200.690 229.766 C 243.282 257.240,258.347 277.986,258.392 309.225 C 258.410 321.442,253.795 341.595,247.841 355.300 C 246.940 357.375,247.301 357.175,248.771 354.786 C 255.206 344.328,260.374 322.064,259.887 306.905 C 258.926 277.022,243.964 255.886,206.575 231.597 C 182.401 215.892,171.809 207.809,158.224 194.698 C 156.257 192.800,154.475 191.354,154.262 191.485 C 154.050 191.616,153.990 191.540,154.129 191.315 C 154.268 191.091,154.013 190.574,153.563 190.166 C 153.113 189.759,151.790 188.064,150.624 186.400 C 147.545 182.005,145.374 180.196,144.504 181.300 C 143.647 182.388,143.591 185.717,143.590 235.887 C 143.588 300.242,143.577 300.387,137.591 310.462 C 129.173 324.631,117.973 329.858,95.520 330.096 C 83.415 330.224,83.629 330.326,87.489 326.262 C 91.804 321.720,94.301 316.497,96.220 308.000 C 96.974 304.661,97.849 218.282,97.412 190.400 C 97.296 183.030,97.171 163.680,97.134 147.400 C 97.094 129.797,96.914 117.494,96.689 117.044 C 94.586 112.830,84.618 101.212,79.952 97.538 C 75.707 94.194,75.725 94.185,86.722 94.269 C 107.093 94.425,122.063 98.252,126.751 104.502 C 128.816 107.254,136.357 114.584,139.400 116.796 C 140.720 117.755,143.600 120.306,145.800 122.466 C 163.744 140.076,175.184 151.674,183.015 160.194 C 207.843 187.207,227.068 206.552,248.807 226.400 C 265.807 241.920,267.417 243.424,275.252 251.100 C 279.574 255.335,283.221 258.800,283.355 258.800 C 285.512 258.800,275.789 246.094,264.459 234.107 L 257.200 226.426 257.214 215.913 C 257.221 210.131,257.406 200.000,257.624 193.400 C 257.842 186.800,258.109 172.310,258.218 161.200 C 258.532 129.044,258.872 127.839,272.293 111.278 C 281.656 99.725,291.833 94.895,308.394 94.148 C 315.575 93.824,315.511 93.746,311.495 97.956 C 307.318 102.332,305.063 106.953,303.999 113.310 C 303.231 117.895,303.210 120.335,303.200 205.310 L 303.189 292.600 304.569 296.445 C 307.774 305.374,309.604 319.522,308.817 329.290 C 307.649 343.801,305.618 348.779,297.542 356.932 C 293.017 361.499,293.204 361.787,298.421 358.290 C 311.043 349.829,314.537 321.948,306.260 295.756 L 304.856 291.312 304.816 206.556 C 304.781 132.071,304.852 121.218,305.398 117.000 C 306.708 106.891,309.444 101.510,315.674 96.786 C 321.337 92.494,320.398 91.817,309.205 92.123 C 282.176 92.862,263.951 106.302,257.549 130.214 L 256.268 135.000 255.834 179.689 C 255.307 233.946,256.352 229.389,246.335 221.134 C 236.974 213.419,213.813 190.789,202.189 178.000 C 200.889 176.570,199.280 174.857,198.613 174.193 C 193.107 168.717,176.981 150.622,163.979 135.333 C 154.372 124.035,152.803 122.151,149.746 118.246 C 137.973 103.207,124.453 95.536,105.191 92.967 C 99.362 92.190,73.220 91.739,71.700 92.389 M268.669 377.825 C 255.221 383.704,228.393 390.633,226.480 388.720 C 226.107 388.347,226.000 388.425,226.000 389.071 C 226.000 390.537,226.974 390.936,229.910 390.674 C 238.111 389.941,262.153 382.175,270.539 377.551 C 273.294 376.032,272.504 376.148,268.669 377.825 " stroke="none" fill="#a1a8b6" fill-rule="evenodd"></path></g></svg>