<svg id="svg" version="1.1" width="400" height="448.3754512635379" viewBox="0 0 400 448.3754512635379" xmlns="http://www.w3.org/2000/svg" xmlns:xlink="http://www.w3.org/1999/xlink"><g id="svgg"><path id="path0" d="M162.600 191.537 C 158.640 195.636,148.695 205.826,140.499 214.183 L 125.598 229.377 125.699 329.373 L 125.800 429.369 142.200 429.415 C 151.220 429.441,161.255 429.376,164.500 429.270 L 170.400 429.077 170.400 306.538 C 170.400 239.142,170.265 184.019,170.100 184.043 C 169.935 184.066,166.560 187.439,162.600 191.537 M236.400 306.600 C 236.400 374.030,236.535 429.210,236.700 429.221 C 238.732 429.366,280.735 429.446,281.100 429.306 C 281.498 429.153,281.600 408.777,281.600 329.274 L 281.600 229.434 270.894 218.617 C 260.771 208.389,247.284 194.639,240.200 187.324 C 238.440 185.507,236.865 184.015,236.700 184.010 C 236.535 184.004,236.400 239.170,236.400 306.600 M96.374 266.700 C 94.746 268.405,88.370 275.020,82.207 281.399 C 76.043 287.779,68.652 295.429,65.783 298.399 C 62.914 301.370,59.269 305.164,57.683 306.830 L 54.800 309.861 54.800 358.715 L 54.800 407.569 53.925 408.384 C 53.443 408.833,52.913 409.200,52.748 409.200 C 52.582 409.200,51.311 409.896,49.923 410.746 C 48.535 411.596,42.720 415.070,37.000 418.465 C 31.280 421.860,24.800 425.709,22.600 427.019 L 18.600 429.400 58.800 429.503 C 80.910 429.560,99.225 429.520,99.500 429.416 C 100.085 429.193,100.252 263.600,99.668 263.600 C 99.485 263.600,98.003 264.995,96.374 266.700 M306.099 346.500 L 306.200 429.400 347.988 429.502 C 394.261 429.615,391.089 429.826,385.800 426.979 C 384.260 426.150,377.780 422.511,371.400 418.894 C 365.020 415.276,358.045 411.326,355.900 410.116 L 352.000 407.915 351.993 358.858 L 351.987 309.800 345.893 303.600 C 342.541 300.190,332.348 289.795,323.242 280.500 C 314.136 271.205,306.531 263.600,306.342 263.600 C 306.151 263.600,306.043 300.502,306.099 346.500 " stroke="none" fill="#0c2442" fill-rule="evenodd"></path><path id="path1" d="M0.000 224.000 L 0.000 448.000 100.600 448.000 C 155.930 448.000,201.200 447.906,201.200 447.791 C 201.200 447.483,196.197 432.469,195.471 430.600 C 195.130 429.720,193.822 425.774,192.566 421.831 L 190.281 414.663 190.540 401.631 C 191.160 370.419,191.605 351.118,192.801 303.400 C 193.021 294.600,193.382 278.040,193.602 266.600 C 194.145 238.397,194.703 216.093,195.272 199.800 C 195.972 179.748,195.784 130.851,195.004 130.071 C 194.829 129.896,191.105 132.895,179.400 142.633 C 160.192 158.614,159.245 159.379,158.994 159.127 C 158.819 158.953,160.209 157.150,170.927 143.643 C 189.613 120.097,188.537 121.649,186.200 121.605 C 185.326 121.588,164.786 119.575,161.600 119.194 C 157.062 118.651,120.140 115.228,114.706 114.846 C 110.691 114.564,109.562 114.305,110.081 113.785 C 110.199 113.667,113.424 113.317,117.248 113.006 C 121.072 112.696,128.790 111.989,134.400 111.436 C 140.010 110.884,148.830 110.059,154.000 109.605 C 159.170 109.151,166.010 108.526,169.200 108.217 C 172.390 107.908,177.655 107.428,180.900 107.151 C 184.144 106.874,186.990 106.529,187.224 106.385 C 187.672 106.108,184.247 101.469,175.600 90.644 C 172.850 87.201,169.819 83.353,168.865 82.092 C 167.911 80.831,165.556 77.820,163.632 75.400 C 159.734 70.496,159.177 69.693,160.038 70.220 C 160.628 70.581,171.023 79.128,174.800 82.357 C 176.010 83.391,178.350 85.302,180.000 86.603 C 181.650 87.904,184.620 90.341,186.600 92.020 C 188.580 93.698,191.370 95.918,192.800 96.953 L 195.400 98.834 195.690 96.117 C 195.849 94.623,196.153 90.880,196.365 87.800 C 196.577 84.720,197.216 76.890,197.785 70.400 C 198.354 63.910,198.998 55.990,199.216 52.800 C 199.433 49.610,199.792 44.840,200.013 42.200 C 200.234 39.560,200.587 34.610,200.798 31.200 C 201.009 27.790,201.370 23.020,201.601 20.600 C 201.831 18.180,202.131 14.265,202.267 11.900 C 202.450 8.703,203.036 6.096,203.211 7.700 C 203.217 7.755,203.387 10.410,203.588 13.600 C 204.139 22.311,204.752 30.526,205.186 35.000 C 205.399 37.200,205.760 41.520,205.989 44.600 C 206.218 47.680,206.591 52.270,206.818 54.800 C 207.045 57.330,207.488 62.505,207.802 66.301 C 209.078 81.712,209.289 84.011,209.880 89.000 C 210.219 91.860,210.586 95.235,210.696 96.500 C 210.933 99.228,211.092 99.269,213.526 97.229 C 214.557 96.365,217.261 94.160,219.536 92.329 C 221.811 90.498,225.535 87.470,227.812 85.600 C 230.089 83.730,234.168 80.412,236.876 78.226 C 239.584 76.041,242.763 73.383,243.941 72.319 C 248.137 68.527,248.589 68.922,244.885 73.143 C 243.722 74.468,241.935 76.688,240.915 78.076 C 239.895 79.464,237.697 82.250,236.030 84.266 C 234.364 86.282,231.290 90.137,229.200 92.833 C 227.110 95.529,223.911 99.627,222.092 101.939 C 220.273 104.252,218.923 106.277,219.092 106.440 C 219.261 106.603,222.640 107.018,226.600 107.362 C 230.560 107.706,244.600 108.985,257.800 110.204 C 271.000 111.423,284.140 112.606,287.000 112.832 C 295.178 113.481,296.400 113.634,296.400 114.011 C 296.400 114.418,294.953 114.673,291.000 114.964 C 286.694 115.281,266.382 117.118,257.000 118.039 C 252.380 118.492,246.980 119.014,245.000 119.198 C 231.376 120.468,219.720 121.650,219.277 121.807 C 218.666 122.024,218.901 122.356,225.798 131.056 C 228.439 134.387,231.988 138.887,233.684 141.056 C 235.381 143.225,237.245 145.540,237.827 146.200 C 238.409 146.860,240.438 149.380,242.335 151.800 C 244.232 154.220,246.117 156.560,246.525 157.000 C 247.554 158.111,248.197 159.334,247.654 159.146 C 247.421 159.066,241.091 153.960,233.587 147.800 C 217.694 134.753,211.733 130.000,211.266 130.000 C 211.081 130.000,210.822 137.605,210.690 146.900 C 210.467 162.637,210.596 172.511,211.597 216.200 C 211.808 225.440,212.157 242.360,212.371 253.800 C 212.585 265.240,212.858 279.190,212.976 284.800 C 213.095 290.410,213.289 300.760,213.408 307.800 C 213.664 322.972,214.331 349.700,215.649 397.600 L 216.106 414.200 212.410 425.400 C 210.378 431.560,207.923 438.940,206.956 441.800 C 205.988 444.660,205.197 447.225,205.198 447.500 C 205.200 447.899,224.948 448.000,302.600 448.000 L 400.000 448.000 400.000 224.000 L 400.000 0.000 200.000 0.000 L 0.000 0.000 0.000 224.000 M171.100 305.960 C 171.168 389.803,171.069 428.697,170.786 429.226 C 170.202 430.317,125.460 430.455,125.043 429.367 C 124.909 429.019,124.800 383.913,124.800 329.132 L 124.800 229.530 131.279 222.865 C 151.976 201.573,170.234 183.211,170.590 183.330 C 170.868 183.423,171.032 222.783,171.100 305.960 M247.855 194.496 C 253.985 200.709,261.817 208.674,265.260 212.196 C 268.703 215.718,273.968 221.094,276.960 224.141 L 282.400 229.683 282.400 329.361 C 282.400 406.356,282.291 429.149,281.920 429.520 C 281.558 429.882,275.858 430.000,258.720 430.000 L 236.000 430.000 236.000 306.867 C 236.000 239.143,236.120 183.613,236.267 183.467 C 236.413 183.320,236.573 183.200,236.622 183.200 C 236.670 183.200,241.725 188.283,247.855 194.496 M100.400 346.340 L 100.400 429.880 59.354 430.174 C 20.450 430.452,16.666 430.386,17.627 429.443 C 17.887 429.188,26.481 424.000,26.644 424.000 C 26.722 424.000,28.903 422.717,31.493 421.149 C 34.082 419.581,36.740 417.986,37.400 417.606 C 38.060 417.225,40.288 415.898,42.351 414.657 C 44.414 413.416,46.178 412.400,46.270 412.400 C 46.363 412.400,47.423 411.770,48.627 411.000 C 49.831 410.230,50.905 409.600,51.013 409.600 C 51.122 409.600,51.836 409.195,52.601 408.700 L 53.990 407.800 54.009 358.800 L 54.027 309.800 59.513 304.123 C 62.531 301.001,68.959 294.341,73.799 289.323 C 93.392 269.008,99.533 262.800,100.036 262.800 C 100.253 262.800,100.400 296.426,100.400 346.340 M322.550 279.096 C 331.378 288.059,341.702 298.544,345.494 302.396 L 352.389 309.400 352.400 358.200 C 352.407 385.040,352.544 407.204,352.706 407.454 C 352.868 407.703,353.675 408.288,354.500 408.754 C 355.325 409.219,356.624 409.954,357.388 410.386 C 358.151 410.819,359.996 411.835,361.488 412.644 C 362.979 413.454,364.380 414.246,364.600 414.405 C 364.820 414.563,365.810 415.145,366.800 415.697 C 368.757 416.789,382.216 424.433,384.259 425.613 C 384.951 426.013,386.617 426.912,387.961 427.612 C 390.421 428.892,391.081 429.453,390.642 429.891 C 390.142 430.391,305.837 429.983,305.512 429.478 C 304.639 428.123,305.232 262.800,306.111 262.800 C 306.325 262.800,313.723 270.133,322.550 279.096 " stroke="none" fill="#fbfbfb" fill-rule="evenodd"></path><path id="path2" d="M202.267 11.900 C 202.131 14.265,201.831 18.180,201.601 20.600 C 201.370 23.020,201.009 27.790,200.798 31.200 C 200.587 34.610,200.234 39.560,200.013 42.200 C 199.792 44.840,199.433 49.610,199.216 52.800 C 198.998 55.990,198.354 63.910,197.785 70.400 C 197.216 76.890,196.577 84.720,196.365 87.800 C 196.153 90.880,195.849 94.623,195.690 96.117 L 195.400 98.834 192.800 96.953 C 191.370 95.918,188.580 93.698,186.600 92.020 C 184.620 90.341,181.650 87.904,180.000 86.603 C 178.350 85.302,176.010 83.391,174.800 82.357 C 171.023 79.128,160.628 70.581,160.038 70.220 C 159.177 69.693,159.734 70.496,163.632 75.400 C 165.556 77.820,167.911 80.831,168.865 82.092 C 169.819 83.353,172.850 87.201,175.600 90.644 C 183.297 100.280,187.656 106.077,187.399 106.335 C 187.158 106.575,175.610 107.720,158.600 109.192 C 153.320 109.648,142.700 110.642,135.000 111.399 C 127.300 112.156,118.668 112.962,115.818 113.190 C 111.805 113.510,108.532 114.208,110.020 114.426 C 110.119 114.441,112.450 114.610,115.200 114.803 C 117.950 114.996,122.990 115.428,126.400 115.763 C 129.810 116.098,134.490 116.558,136.800 116.785 C 139.110 117.011,145.050 117.559,150.000 118.003 C 154.950 118.446,160.440 118.987,162.200 119.205 C 163.960 119.423,168.243 119.866,171.719 120.190 C 183.671 121.303,187.001 121.692,187.348 122.014 C 187.651 122.295,183.396 128.350,181.314 130.600 C 180.907 131.040,179.329 133.020,177.807 135.000 C 176.285 136.980,173.321 140.739,171.220 143.354 C 169.119 145.968,166.689 149.028,165.820 150.154 C 164.952 151.279,163.185 153.516,161.895 155.124 C 158.854 158.916,159.110 159.410,162.604 156.495 C 171.754 148.862,182.225 140.169,184.931 137.958 C 186.653 136.551,189.533 134.192,191.331 132.717 C 193.129 131.241,194.800 130.026,195.045 130.017 C 195.523 129.999,196.203 174.678,195.849 182.800 C 195.180 198.141,194.261 232.388,193.601 266.600 C 193.380 278.040,193.021 294.600,192.803 303.400 C 191.992 336.084,191.429 360.784,190.542 402.659 L 190.286 414.718 195.838 431.377 L 201.390 448.036 203.133 447.918 L 204.877 447.800 206.264 443.800 C 207.027 441.600,207.975 438.720,208.370 437.400 C 208.765 436.080,210.659 430.320,212.578 424.600 L 216.067 414.200 215.818 409.200 C 215.681 406.450,215.394 395.740,215.180 385.400 C 214.966 375.060,214.618 360.300,214.407 352.600 C 214.019 338.505,213.575 316.841,212.372 253.400 C 212.163 242.400,211.817 225.750,211.602 216.400 C 210.600 172.843,210.462 162.688,210.657 147.200 C 210.773 138.070,210.938 130.370,211.025 130.089 C 211.191 129.553,215.798 132.966,222.000 138.221 C 225.403 141.105,230.392 145.184,241.125 153.857 C 244.274 156.402,246.930 158.403,247.028 158.305 C 247.207 158.126,242.399 151.891,235.000 142.706 C 229.944 136.431,221.346 125.505,219.891 123.505 C 219.114 122.438,218.934 121.930,219.291 121.809 C 219.870 121.612,228.167 120.736,238.200 119.811 C 241.940 119.466,246.620 119.011,248.600 118.798 C 251.994 118.434,253.953 118.246,265.200 117.206 C 267.730 116.972,273.580 116.415,278.200 115.968 C 282.820 115.522,288.760 114.997,291.400 114.802 C 294.040 114.608,296.256 114.437,296.324 114.424 C 297.441 114.206,295.179 113.613,292.499 113.421 C 290.574 113.283,286.390 112.905,283.200 112.581 C 277.291 111.980,269.865 111.295,237.600 108.378 C 227.590 107.473,219.261 106.600,219.092 106.438 C 218.923 106.276,220.273 104.252,222.092 101.939 C 223.911 99.627,227.110 95.529,229.200 92.833 C 231.290 90.137,234.364 86.282,236.030 84.266 C 237.697 82.250,239.895 79.464,240.915 78.076 C 241.935 76.688,243.722 74.468,244.885 73.143 C 248.589 68.922,248.137 68.527,243.941 72.319 C 242.763 73.383,239.584 76.041,236.876 78.226 C 234.168 80.412,230.089 83.730,227.812 85.600 C 225.535 87.470,221.811 90.498,219.536 92.329 C 217.261 94.160,214.557 96.365,213.526 97.229 C 211.092 99.269,210.933 99.228,210.696 96.500 C 210.586 95.235,210.219 91.860,209.880 89.000 C 209.289 84.011,209.078 81.712,207.802 66.301 C 207.488 62.505,207.045 57.330,206.818 54.800 C 206.591 52.270,206.218 47.680,205.989 44.600 C 205.760 41.520,205.399 37.200,205.186 35.000 C 204.752 30.526,204.139 22.311,203.588 13.600 C 203.387 10.410,203.217 7.755,203.211 7.700 C 203.036 6.096,202.450 8.703,202.267 11.900 " stroke="none" fill="#d49d4f" fill-rule="evenodd"></path><path id="path3" d="M195.342 133.400 C 195.341 135.380,195.408 136.240,195.492 135.312 C 195.576 134.384,195.577 132.764,195.495 131.712 C 195.412 130.660,195.343 131.420,195.342 133.400 M195.324 140.200 C 195.326 141.520,195.401 142.012,195.490 141.293 C 195.579 140.574,195.577 139.494,195.486 138.893 C 195.395 138.292,195.322 138.880,195.324 140.200 M246.970 158.278 C 247.025 158.651,247.297 159.032,247.574 159.125 C 247.966 159.255,247.977 159.105,247.625 158.446 C 247.078 157.425,246.836 157.362,246.970 158.278 M153.969 199.697 C 145.053 208.774,134.842 219.199,131.279 222.865 L 124.800 229.530 124.800 329.132 C 124.800 383.913,124.909 429.019,125.043 429.367 C 125.460 430.455,170.202 430.317,170.786 429.226 C 171.361 428.151,171.167 183.522,170.590 183.330 C 170.365 183.255,162.885 190.620,153.969 199.697 M236.267 183.467 C 236.120 183.613,236.000 239.143,236.000 306.867 L 236.000 430.000 258.720 430.000 C 275.858 430.000,281.558 429.882,281.920 429.520 C 282.291 429.149,282.400 406.356,282.400 329.361 L 282.400 229.683 276.960 224.141 C 273.968 221.094,268.703 215.718,265.260 212.196 C 255.672 202.388,236.721 183.200,236.622 183.200 C 236.573 183.200,236.413 183.320,236.267 183.467 M170.400 306.538 L 170.400 429.077 164.500 429.270 C 161.255 429.376,151.220 429.441,142.200 429.415 L 125.800 429.369 125.699 329.373 L 125.598 229.377 140.499 214.183 C 148.695 205.826,158.640 195.636,162.600 191.537 C 166.560 187.439,169.935 184.066,170.100 184.043 C 170.265 184.019,170.400 239.142,170.400 306.538 M240.200 187.324 C 247.284 194.639,260.771 208.389,270.894 218.617 L 281.600 229.434 281.600 329.274 C 281.600 408.777,281.498 429.153,281.100 429.306 C 280.735 429.446,238.732 429.366,236.700 429.221 C 236.535 429.210,236.400 374.030,236.400 306.600 C 236.400 239.170,236.535 184.004,236.700 184.010 C 236.865 184.015,238.440 185.507,240.200 187.324 M96.936 265.546 C 93.028 269.468,83.988 278.758,73.799 289.323 C 68.959 294.341,62.531 301.001,59.513 304.123 L 54.027 309.800 54.009 358.800 L 53.990 407.800 52.601 408.700 C 51.836 409.195,51.122 409.600,51.013 409.600 C 50.905 409.600,49.831 410.230,48.627 411.000 C 47.423 411.770,46.363 412.400,46.270 412.400 C 46.178 412.400,44.414 413.416,42.351 414.657 C 40.288 415.898,38.060 417.225,37.400 417.606 C 36.740 417.986,34.082 419.581,31.493 421.149 C 28.903 422.717,26.722 424.000,26.644 424.000 C 26.481 424.000,17.887 429.188,17.627 429.443 C 16.666 430.386,20.450 430.452,59.354 430.174 L 100.400 429.880 100.400 346.340 C 100.400 296.426,100.253 262.800,100.036 262.800 C 99.836 262.800,98.441 264.036,96.936 265.546 M305.467 268.500 C 305.101 276.706,305.144 428.907,305.512 429.478 C 305.837 429.983,390.142 430.391,390.642 429.891 C 391.081 429.453,390.421 428.892,387.961 427.612 C 386.617 426.912,384.951 426.013,384.259 425.613 C 382.216 424.433,368.757 416.789,366.800 415.697 C 365.810 415.145,364.820 414.563,364.600 414.405 C 364.380 414.246,362.979 413.454,361.488 412.644 C 359.996 411.835,358.151 410.819,357.388 410.386 C 356.624 409.954,355.325 409.219,354.500 408.754 C 353.675 408.288,352.868 407.703,352.706 407.454 C 352.544 407.204,352.407 385.040,352.400 358.200 L 352.389 309.400 345.494 302.396 C 312.858 269.241,306.451 262.800,306.111 262.800 C 305.888 262.800,305.612 265.242,305.467 268.500 M100.000 346.413 C 100.000 412.294,99.898 429.264,99.500 429.416 C 99.225 429.520,80.910 429.560,58.800 429.503 L 18.600 429.400 22.600 427.019 C 24.800 425.709,31.280 421.860,37.000 418.465 C 42.720 415.070,48.535 411.596,49.923 410.746 C 51.311 409.896,52.582 409.200,52.748 409.200 C 52.913 409.200,53.443 408.833,53.925 408.384 L 54.800 407.569 54.800 358.715 L 54.800 309.861 57.683 306.830 C 59.269 305.164,62.914 301.370,65.783 298.399 C 68.652 295.429,76.043 287.779,82.207 281.399 C 88.370 275.020,94.746 268.405,96.374 266.700 C 98.003 264.995,99.485 263.600,99.668 263.600 C 99.850 263.600,100.000 300.866,100.000 346.413 M323.242 280.500 C 332.348 289.795,342.541 300.190,345.893 303.600 L 351.987 309.800 351.993 358.858 L 352.000 407.915 355.900 410.116 C 358.045 411.326,365.020 415.276,371.400 418.894 C 377.780 422.511,384.260 426.150,385.800 426.979 C 391.089 429.826,394.261 429.615,347.988 429.502 L 306.200 429.400 306.099 346.500 C 306.043 300.502,306.151 263.600,306.342 263.600 C 306.531 263.600,314.136 271.205,323.242 280.500 M213.693 328.800 C 213.693 329.570,213.775 329.885,213.876 329.500 C 213.976 329.115,213.976 328.485,213.876 328.100 C 213.775 327.715,213.693 328.030,213.693 328.800 M191.293 360.000 C 191.293 360.770,191.375 361.085,191.476 360.700 C 191.576 360.315,191.576 359.685,191.476 359.300 C 191.375 358.915,191.293 359.230,191.293 360.000 M215.324 393.800 C 215.326 395.120,215.401 395.612,215.490 394.893 C 215.579 394.174,215.577 393.094,215.486 392.493 C 215.395 391.892,215.322 392.480,215.324 393.800 M190.493 396.000 C 190.493 396.770,190.575 397.085,190.676 396.700 C 190.776 396.315,190.776 395.685,190.676 395.300 C 190.575 394.915,190.493 395.230,190.493 396.000 M215.728 406.400 C 215.728 407.830,215.801 408.415,215.889 407.700 C 215.978 406.985,215.978 405.815,215.889 405.100 C 215.801 404.385,215.728 404.970,215.728 406.400 " stroke="none" fill="#919caa" fill-rule="evenodd"></path></g></svg>