<svg id="svg" version="1.1" width="400" height="431.89792663476874" viewBox="0 0 400 431.89792663476874" xmlns="http://www.w3.org/2000/svg" xmlns:xlink="http://www.w3.org/1999/xlink"><g id="svgg"><path id="path0" d="M197.716 20.400 C 197.601 20.840,197.348 21.200,197.153 21.200 C 196.959 21.200,196.800 23.255,196.800 25.767 C 196.800 28.278,196.632 30.393,196.427 30.467 C 196.222 30.540,195.926 34.515,195.768 39.300 C 195.611 44.085,195.347 48.000,195.182 48.000 C 195.017 48.000,194.751 51.600,194.590 56.000 C 194.429 60.400,194.141 64.000,193.949 64.000 C 193.757 64.000,193.600 66.070,193.600 68.600 C 193.600 71.574,193.450 73.200,193.176 73.200 C 192.903 73.200,192.780 74.484,192.831 76.811 C 192.875 78.798,192.796 80.538,192.655 80.678 C 192.515 80.818,192.400 82.613,192.400 84.667 C 192.400 86.720,192.248 88.400,192.063 88.400 C 191.877 88.400,191.611 91.306,191.471 94.858 C 191.331 98.410,191.149 101.385,191.066 101.468 C 190.722 101.812,189.613 101.070,189.381 100.341 C 189.244 99.909,188.922 99.626,188.666 99.711 C 188.410 99.797,187.453 99.099,186.540 98.160 C 185.628 97.221,184.798 96.535,184.697 96.636 C 184.596 96.737,183.789 96.095,182.904 95.210 C 182.019 94.324,181.168 93.600,181.014 93.600 C 180.859 93.600,180.121 92.970,179.374 92.200 C 178.626 91.430,177.834 90.800,177.613 90.800 C 177.392 90.800,176.424 89.990,175.462 89.000 C 174.500 88.010,173.430 87.200,173.083 87.200 C 172.737 87.200,172.343 86.849,172.206 86.420 C 172.070 85.992,171.563 85.516,171.080 85.363 C 170.596 85.210,169.525 84.391,168.700 83.543 C 167.876 82.694,167.026 82.000,166.812 82.000 C 166.598 82.000,165.547 81.100,164.475 80.000 C 163.404 78.900,162.363 77.997,162.164 77.993 C 161.964 77.989,161.382 77.546,160.872 77.007 C 160.086 76.179,159.825 76.103,159.172 76.510 C 158.106 77.176,158.206 78.643,159.400 79.836 C 159.950 80.386,160.400 80.980,160.400 81.155 C 160.400 81.330,161.120 82.207,162.000 83.105 C 162.880 84.003,163.600 84.849,163.600 84.986 C 163.600 85.123,164.050 85.720,164.600 86.313 C 165.150 86.907,165.600 87.593,165.600 87.840 C 165.600 88.086,166.050 88.626,166.600 89.039 C 167.150 89.452,167.600 90.003,167.600 90.264 C 167.600 90.525,168.140 91.278,168.800 91.938 C 169.460 92.598,170.000 93.251,170.000 93.389 C 170.000 93.527,170.626 94.284,171.391 95.072 C 172.156 95.860,172.707 96.627,172.615 96.775 C 172.523 96.924,172.887 97.376,173.424 97.779 C 173.961 98.182,174.400 98.688,174.400 98.903 C 174.400 99.118,175.120 100.014,176.000 100.894 C 176.880 101.774,177.600 102.677,177.600 102.900 C 177.600 103.123,178.207 103.878,178.949 104.578 C 179.692 105.278,180.424 106.247,180.578 106.731 C 180.732 107.215,181.025 107.508,181.229 107.382 C 181.433 107.256,181.600 107.529,181.600 107.989 C 181.600 108.449,181.870 108.929,182.200 109.055 C 183.582 109.586,182.617 110.000,180.000 110.000 C 178.460 110.000,177.200 110.157,177.200 110.349 C 177.200 110.541,174.095 110.830,170.300 110.991 C 166.505 111.153,163.310 111.418,163.200 111.581 C 163.025 111.841,157.330 112.310,145.500 113.041 C 143.575 113.160,142.000 113.403,142.000 113.583 C 142.000 113.762,139.120 114.040,135.600 114.200 C 132.080 114.360,129.200 114.626,129.200 114.790 C 129.200 114.955,126.111 115.220,122.336 115.380 C 115.065 115.687,114.400 115.879,114.400 117.675 C 114.400 119.224,115.560 119.548,122.166 119.843 C 125.595 119.996,128.400 120.274,128.400 120.460 C 128.400 120.647,129.984 120.800,131.920 120.800 C 133.856 120.800,135.611 120.966,135.820 121.170 C 136.029 121.373,139.120 121.668,142.689 121.825 C 146.259 121.982,149.099 122.240,149.001 122.398 C 148.903 122.556,151.653 122.814,155.112 122.971 C 158.570 123.127,161.460 123.423,161.533 123.628 C 161.607 123.832,163.002 124.000,164.633 124.000 C 166.265 124.000,167.600 124.150,167.600 124.332 C 167.600 124.515,168.545 124.665,169.700 124.666 C 173.574 124.669,180.800 125.316,180.800 125.660 C 180.800 125.847,181.263 126.000,181.829 126.000 C 182.764 126.000,182.800 126.057,182.229 126.629 C 181.883 126.974,181.600 127.448,181.600 127.681 C 181.600 127.915,180.970 128.700,180.200 129.426 C 179.430 130.152,178.800 130.925,178.800 131.142 C 178.800 131.360,178.260 132.078,177.600 132.738 C 176.940 133.398,176.400 134.067,176.400 134.223 C 176.400 134.380,175.950 134.925,175.400 135.435 C 174.850 135.945,174.400 136.542,174.400 136.763 C 174.400 136.983,173.950 137.614,173.400 138.164 C 172.850 138.714,172.400 139.345,172.400 139.567 C 172.400 139.789,171.644 140.697,170.719 141.585 C 169.795 142.473,169.173 143.200,169.338 143.200 C 169.502 143.200,169.178 143.658,168.618 144.218 C 168.058 144.778,167.600 145.406,167.600 145.613 C 167.600 145.821,166.880 146.667,166.001 147.495 C 165.121 148.323,164.401 149.148,164.401 149.329 C 164.400 149.509,164.175 149.908,163.900 150.215 C 162.812 151.428,162.400 151.977,162.400 152.214 C 162.400 152.350,161.860 153.002,161.200 153.662 C 160.540 154.322,160.000 155.106,160.000 155.404 C 160.000 155.702,159.678 156.048,159.285 156.173 C 158.412 156.450,158.241 157.898,158.993 158.650 C 159.793 159.450,161.107 159.324,161.394 158.420 C 161.530 157.992,161.951 157.543,162.329 157.422 C 162.708 157.302,163.733 156.489,164.609 155.615 C 165.484 154.741,166.437 154.020,166.726 154.013 C 167.015 154.006,167.706 153.460,168.261 152.800 C 168.817 152.140,169.480 151.600,169.736 151.599 C 169.991 151.599,170.877 150.879,171.705 149.999 C 172.533 149.120,173.359 148.400,173.541 148.400 C 173.724 148.400,174.730 147.591,175.777 146.601 C 176.824 145.612,177.830 144.895,178.012 145.007 C 178.194 145.120,178.455 144.858,178.592 144.426 C 178.729 143.994,179.194 143.529,179.626 143.392 C 180.058 143.255,180.316 142.988,180.200 142.800 C 180.084 142.612,180.390 142.330,180.880 142.175 C 181.371 142.019,182.360 141.286,183.079 140.546 C 183.798 139.806,184.555 139.200,184.761 139.200 C 184.967 139.200,185.915 138.393,186.868 137.407 C 187.821 136.420,188.825 135.610,189.100 135.607 C 189.375 135.603,189.600 135.420,189.600 135.200 C 189.600 134.980,189.780 134.800,190.000 134.800 C 190.220 134.800,190.400 135.340,190.400 136.000 C 190.400 136.660,190.580 137.200,190.800 137.200 C 191.020 137.200,191.200 137.560,191.200 138.000 C 191.200 138.440,191.020 138.800,190.800 138.800 C 190.567 138.800,190.400 140.133,190.400 142.000 C 190.400 143.867,190.567 145.200,190.800 145.200 C 191.060 145.200,191.200 151.067,191.200 162.000 C 191.200 172.933,191.060 178.800,190.800 178.800 C 190.543 178.800,190.400 182.609,190.400 189.426 C 190.400 195.271,190.237 200.357,190.039 200.728 C 189.839 201.100,189.544 215.800,189.381 233.502 C 189.218 251.156,188.956 265.600,188.798 265.600 C 188.640 265.600,188.378 277.705,188.215 292.500 C 188.051 307.295,187.774 319.490,187.598 319.600 C 187.065 319.933,186.919 387.575,187.451 387.913 C 187.699 388.071,188.030 388.965,188.186 389.900 C 188.342 390.835,188.594 391.600,188.744 391.600 C 189.030 391.600,189.885 394.465,190.266 396.700 C 190.388 397.415,190.646 398.000,190.839 398.000 C 191.032 398.000,191.306 398.720,191.446 399.600 C 191.587 400.480,191.839 401.200,192.006 401.200 C 192.173 401.200,192.430 402.006,192.578 402.991 C 192.725 403.976,193.016 404.886,193.223 405.014 C 193.430 405.142,193.600 405.697,193.600 406.247 C 193.600 406.797,193.763 407.146,193.962 407.023 C 194.162 406.900,194.449 407.699,194.600 408.800 C 194.751 409.900,195.038 410.800,195.238 410.800 C 195.437 410.800,195.600 411.239,195.600 411.776 C 195.600 412.313,195.772 412.859,195.983 412.989 C 196.193 413.119,196.271 413.472,196.155 413.772 C 196.040 414.073,196.138 414.438,196.373 414.583 C 196.608 414.728,196.800 415.285,196.800 415.819 C 196.800 417.111,197.953 418.400,199.109 418.400 C 200.088 418.400,201.200 416.492,201.200 414.813 C 201.200 414.366,201.363 414.000,201.562 414.000 C 201.762 414.000,202.049 413.100,202.200 412.000 C 202.351 410.899,202.638 410.100,202.838 410.223 C 203.037 410.346,203.200 409.997,203.200 409.447 C 203.200 408.897,203.383 408.334,203.607 408.196 C 203.830 408.058,203.909 407.777,203.783 407.572 C 203.656 407.368,203.743 407.200,203.976 407.200 C 204.209 407.200,204.400 406.750,204.400 406.200 C 204.400 405.650,204.555 405.200,204.744 405.200 C 204.934 405.200,205.199 404.269,205.334 403.130 C 205.469 401.992,205.737 400.957,205.930 400.830 C 206.123 400.704,206.392 400.150,206.528 399.600 C 207.366 396.203,207.816 394.800,208.066 394.800 C 208.223 394.800,208.472 393.990,208.621 393.000 C 208.769 392.010,209.050 391.200,209.245 391.200 C 209.440 391.200,209.600 390.761,209.600 390.224 C 209.600 389.687,209.770 389.142,209.977 389.014 C 210.184 388.886,210.475 387.976,210.622 386.991 C 210.770 386.006,211.050 385.200,211.245 385.200 C 211.444 385.200,211.600 379.909,211.600 373.200 C 211.600 366.600,211.446 361.200,211.257 361.200 C 211.069 361.200,210.784 350.175,210.625 336.700 C 210.460 322.794,210.176 312.036,209.967 311.820 C 209.755 311.600,209.600 303.396,209.600 292.320 C 209.600 281.797,209.444 273.200,209.253 273.200 C 209.063 273.200,208.774 259.205,208.612 242.100 C 208.445 224.408,208.163 210.943,207.959 210.867 C 207.758 210.792,207.589 204.908,207.576 197.467 C 207.562 190.170,207.427 176.010,207.275 166.000 C 207.048 151.114,207.196 132.196,207.522 134.300 C 207.565 134.575,207.788 134.800,208.017 134.800 C 208.469 134.800,209.275 135.396,210.317 136.500 C 210.680 136.885,211.117 137.200,211.288 137.200 C 211.459 137.200,212.363 137.920,213.297 138.800 C 214.231 139.680,215.110 140.400,215.250 140.400 C 215.389 140.400,216.245 141.120,217.152 142.000 C 218.059 142.880,219.101 143.600,219.467 143.600 C 219.834 143.600,220.025 143.708,219.894 143.840 C 219.611 144.122,221.851 146.400,222.410 146.400 C 222.621 146.400,223.309 146.940,223.940 147.600 C 224.571 148.260,225.210 148.800,225.360 148.800 C 225.945 148.800,229.577 152.290,229.290 152.577 C 229.167 152.700,229.420 152.800,229.852 152.800 C 230.284 152.800,231.079 153.332,231.619 153.983 C 232.158 154.634,232.819 155.174,233.086 155.183 C 233.354 155.192,234.125 155.740,234.800 156.400 C 235.475 157.060,236.279 157.600,236.587 157.600 C 236.894 157.600,237.253 157.936,237.383 158.347 C 237.528 158.805,237.965 159.076,238.510 159.047 C 240.359 158.949,240.495 157.334,238.800 155.600 C 238.140 154.925,237.600 154.190,237.600 153.967 C 237.600 153.744,237.150 153.145,236.600 152.635 C 236.050 152.125,235.600 151.505,235.600 151.257 C 235.600 151.009,235.060 150.325,234.400 149.737 C 233.740 149.149,233.198 148.473,233.196 148.234 C 233.194 147.995,232.476 147.170,231.600 146.400 C 230.724 145.630,230.006 144.770,230.004 144.488 C 230.002 144.206,229.371 143.423,228.601 142.747 C 227.832 142.072,227.286 141.385,227.388 141.220 C 227.489 141.055,227.129 140.535,226.586 140.063 C 226.044 139.591,225.600 139.000,225.600 138.749 C 225.600 138.497,225.150 137.875,224.600 137.365 C 224.050 136.855,223.600 136.326,223.600 136.188 C 223.600 136.051,223.060 135.398,222.400 134.738 C 221.740 134.078,221.200 133.372,221.200 133.169 C 221.200 132.966,220.480 132.080,219.600 131.200 C 218.720 130.320,218.000 129.342,218.000 129.027 C 218.000 128.712,217.649 128.343,217.220 128.206 C 216.350 127.930,215.862 126.824,216.211 125.917 C 216.429 125.347,220.685 124.875,228.321 124.575 C 229.487 124.529,230.552 124.381,230.687 124.246 C 230.823 124.111,232.253 124.000,233.867 124.000 C 235.480 124.000,236.800 123.837,236.800 123.639 C 236.800 123.440,239.680 123.147,243.200 122.988 C 246.720 122.828,249.600 122.558,249.600 122.388 C 249.600 122.218,252.664 121.948,256.408 121.788 C 260.153 121.628,263.313 121.340,263.432 121.149 C 263.550 120.957,265.257 120.800,267.224 120.800 C 269.191 120.800,270.800 120.647,270.800 120.461 C 270.800 120.274,273.415 119.998,276.612 119.847 C 283.656 119.514,285.227 118.732,283.300 116.518 C 282.672 115.796,281.903 115.683,275.800 115.417 C 272.060 115.254,268.910 114.980,268.800 114.808 C 268.690 114.636,265.495 114.363,261.700 114.202 C 257.905 114.040,254.800 113.749,254.800 113.554 C 254.800 113.359,253.281 113.200,251.424 113.200 C 249.567 113.200,247.950 113.042,247.830 112.849 C 247.711 112.656,244.595 112.367,240.907 112.207 C 237.218 112.047,234.020 111.770,233.800 111.593 C 233.580 111.415,230.475 111.139,226.900 110.979 C 223.325 110.819,220.400 110.534,220.400 110.344 C 220.400 110.155,219.230 110.000,217.800 110.000 C 214.783 110.000,214.740 109.939,216.600 108.292 C 217.370 107.611,218.000 106.856,218.000 106.615 C 218.000 106.375,218.360 105.870,218.800 105.493 C 219.240 105.116,219.600 104.579,219.600 104.299 C 219.600 104.019,220.050 103.452,220.600 103.039 C 221.150 102.626,221.600 102.043,221.600 101.744 C 221.600 101.445,221.768 101.200,221.973 101.200 C 222.178 101.200,222.457 100.849,222.594 100.420 C 222.730 99.992,223.192 99.530,223.620 99.394 C 224.049 99.257,224.400 98.916,224.400 98.634 C 224.400 98.353,224.760 97.707,225.200 97.200 C 225.640 96.693,226.000 96.134,226.000 95.958 C 226.000 95.782,226.630 95.027,227.400 94.279 C 228.170 93.531,228.802 92.757,228.804 92.560 C 228.806 92.362,229.524 91.570,230.400 90.800 C 231.276 90.030,231.994 89.174,231.996 88.897 C 231.998 88.621,232.450 88.003,233.000 87.525 C 233.550 87.047,234.000 86.455,234.000 86.209 C 234.000 85.963,234.532 85.321,235.183 84.781 C 235.834 84.242,236.374 83.547,236.383 83.239 C 236.392 82.930,237.144 81.990,238.053 81.151 C 239.375 79.931,239.716 79.332,239.753 78.166 C 239.820 76.084,238.744 75.444,237.460 76.803 C 236.231 78.104,234.063 80.000,233.803 80.000 C 233.692 80.000,232.880 80.720,232.000 81.600 C 231.120 82.480,230.211 83.200,229.981 83.200 C 229.750 83.200,229.145 83.650,228.635 84.200 C 228.125 84.750,227.544 85.200,227.344 85.200 C 227.144 85.200,226.218 86.010,225.286 87.000 C 224.355 87.990,223.402 88.800,223.169 88.800 C 222.937 88.800,222.173 89.405,221.473 90.144 C 220.773 90.884,219.795 91.616,219.300 91.771 C 218.805 91.927,218.400 92.214,218.400 92.411 C 218.400 92.873,216.325 94.800,215.827 94.800 C 215.618 94.800,214.797 95.496,214.003 96.348 C 213.210 97.199,212.181 98.016,211.717 98.163 C 211.253 98.310,210.773 98.694,210.650 99.015 C 210.526 99.337,210.183 99.600,209.886 99.600 C 209.590 99.600,208.806 100.212,208.144 100.959 L 206.941 102.318 207.120 100.159 C 207.239 98.722,207.149 98.000,206.850 98.000 C 206.557 98.000,206.400 96.954,206.400 95.000 C 206.400 93.350,206.245 92.000,206.055 92.000 C 205.866 92.000,205.580 88.895,205.419 85.101 C 205.258 81.307,204.989 78.112,204.819 78.001 C 204.650 77.890,204.383 74.380,204.226 70.200 C 204.070 66.020,203.774 62.429,203.571 62.220 C 203.367 62.011,203.200 60.091,203.200 57.953 C 203.200 55.816,203.036 54.007,202.835 53.933 C 202.635 53.860,202.340 50.110,202.181 45.600 C 202.022 41.090,201.752 37.309,201.582 37.199 C 201.411 37.088,201.141 33.218,200.981 28.599 C 200.793 23.186,200.531 20.096,200.245 19.906 C 199.343 19.310,197.929 19.587,197.716 20.400 M169.200 177.936 C 169.200 178.345,171.224 179.309,171.501 179.032 C 171.610 178.923,171.592 178.557,171.462 178.217 C 171.219 177.584,169.200 177.332,169.200 177.936 M128.933 219.438 C 128.933 219.747,129.173 220.000,129.467 220.000 C 129.760 220.000,130.000 219.839,130.000 219.643 C 130.000 219.446,129.760 219.193,129.467 219.081 C 129.173 218.968,128.933 219.129,128.933 219.438 M288.099 309.513 L 288.197 370.200 288.300 312.677 C 288.368 274.587,288.537 255.238,288.801 255.401 C 289.053 255.557,289.200 254.478,289.200 252.466 C 289.200 250.008,289.064 249.233,288.600 249.055 C 288.068 248.851,288.011 255.706,288.099 309.513 M109.396 323.200 C 109.396 363.790,109.443 380.395,109.500 360.100 C 109.557 339.805,109.557 306.595,109.500 286.300 C 109.443 266.005,109.396 282.610,109.396 323.200 M288.924 261.800 C 288.926 263.120,289.001 263.612,289.090 262.893 C 289.179 262.174,289.177 261.094,289.086 260.493 C 288.995 259.892,288.922 260.480,288.924 261.800 M288.937 341.400 C 288.939 343.160,289.009 343.830,289.093 342.889 C 289.178 341.949,289.177 340.509,289.091 339.689 C 289.005 338.870,288.936 339.640,288.937 341.400 M128.667 363.867 C 128.238 364.295,128.360 371.528,128.800 371.800 C 129.020 371.936,129.200 371.756,129.200 371.400 C 129.200 371.044,129.383 370.866,129.606 371.004 C 129.999 371.247,129.906 368.546,129.406 365.233 C 129.176 363.705,129.054 363.480,128.667 363.867 M129.200 374.576 C 129.200 375.553,129.020 376.464,128.800 376.600 C 128.580 376.736,128.400 378.457,128.400 380.424 C 128.400 382.541,128.563 384.000,128.800 384.000 C 129.020 384.000,129.200 383.449,129.200 382.776 C 129.200 382.103,129.359 381.651,129.553 381.771 C 129.746 381.890,129.881 381.271,129.853 380.394 C 129.824 379.518,129.678 378.800,129.528 378.800 C 129.379 378.800,129.352 377.450,129.470 375.800 C 129.587 374.150,129.575 372.800,129.442 372.800 C 129.309 372.800,129.200 373.599,129.200 374.576 M288.131 377.800 C 288.133 379.340,288.205 379.921,288.292 379.091 C 288.379 378.261,288.377 377.001,288.289 376.291 C 288.200 375.581,288.129 376.260,288.131 377.800 M288.086 391.133 C 288.019 395.571,288.113 396.830,288.500 396.702 C 289.110 396.502,289.420 394.400,288.840 394.400 C 288.587 394.400,288.377 392.649,288.299 389.900 C 288.173 385.455,288.170 385.470,288.086 391.133 M128.400 390.376 C 128.400 392.431,129.121 394.351,129.244 392.624 C 129.420 390.154,129.213 388.000,128.800 388.000 C 128.578 388.000,128.400 389.059,128.400 390.376 M288.901 392.600 C 288.905 393.480,288.987 393.793,289.083 393.295 C 289.179 392.798,289.175 392.078,289.075 391.695 C 288.975 391.313,288.896 391.720,288.901 392.600 M35.080 397.854 C 34.323 398.610,35.155 398.800,39.233 398.800 C 42.602 398.800,43.627 398.680,43.501 398.300 C 43.320 397.753,35.590 397.344,35.080 397.854 M52.291 397.842 C 51.600 398.533,52.762 398.800,56.457 398.800 C 59.486 398.800,60.426 398.678,60.301 398.300 C 60.122 397.761,52.792 397.342,52.291 397.842 " stroke="none" fill="#d5a869" fill-rule="evenodd"></path><path id="path1" d="M166.386 183.500 C 164.776 185.205,156.526 193.678,148.052 202.328 C 139.578 210.979,132.229 218.539,131.723 219.128 L 130.801 220.200 130.800 308.300 L 130.800 396.400 150.200 396.400 L 169.600 396.400 169.600 288.400 C 169.600 229.000,169.535 180.400,169.456 180.400 C 169.377 180.400,167.995 181.795,166.386 183.500 M229.035 181.052 C 228.927 181.334,228.826 229.902,228.810 288.982 L 228.782 396.400 248.391 396.400 L 268.000 396.400 268.000 308.246 L 268.000 220.092 258.100 209.955 C 252.655 204.380,246.490 198.098,244.400 195.994 C 242.310 193.890,238.042 189.553,234.916 186.355 C 231.519 182.880,229.153 180.746,229.035 181.052 M290.400 323.568 L 290.400 396.400 326.900 396.398 C 357.472 396.395,363.238 396.309,362.400 395.864 C 358.310 393.693,352.211 390.249,344.600 385.815 C 341.127 383.792,339.550 382.912,333.300 379.509 L 330.400 377.931 330.400 334.535 L 330.400 291.140 324.100 284.728 C 320.635 281.202,315.370 275.841,312.400 272.815 C 302.081 262.300,293.249 253.392,291.829 252.068 L 290.400 250.735 290.400 323.568 M100.543 257.661 C 90.775 267.683,81.433 277.332,76.593 282.399 C 74.177 284.928,71.345 287.853,70.300 288.900 L 68.400 290.803 68.400 333.925 C 68.400 367.822,68.293 377.181,67.900 377.673 C 67.625 378.017,65.600 379.348,63.400 380.631 C 61.200 381.913,56.430 384.753,52.800 386.941 C 49.170 389.129,45.399 391.368,44.421 391.917 C 43.443 392.465,41.733 393.456,40.621 394.119 C 39.509 394.782,38.150 395.566,37.600 395.860 C 36.758 396.310,42.194 396.395,71.900 396.398 L 107.200 396.400 107.219 394.900 C 107.320 386.876,107.148 251.414,107.036 251.302 C 106.954 251.220,104.032 254.082,100.543 257.661 " stroke="none" fill="#0c2341" fill-rule="evenodd"></path><path id="path2" d="M167.190 181.897 L 165.000 184.200 167.213 182.100 C 168.429 180.945,169.554 180.000,169.713 180.000 C 169.871 180.000,170.000 228.683,170.000 288.185 L 170.000 396.370 166.300 396.510 L 162.600 396.650 166.400 396.625 L 170.200 396.600 170.200 288.233 C 170.200 214.534,170.069 179.823,169.790 179.730 C 169.564 179.655,168.394 180.630,167.190 181.897 M235.000 186.000 C 238.074 189.080,240.679 191.600,240.789 191.600 C 240.899 191.600,238.474 189.080,235.400 186.000 C 232.326 182.920,229.721 180.400,229.611 180.400 C 229.501 180.400,231.926 182.920,235.000 186.000 M159.593 189.900 L 155.400 194.200 159.700 190.007 C 163.694 186.113,164.182 185.600,163.893 185.600 C 163.834 185.600,161.899 187.535,159.593 189.900 M153.578 195.900 L 152.200 197.400 153.700 196.022 C 155.096 194.738,155.384 194.400,155.078 194.400 C 155.012 194.400,154.337 195.075,153.578 195.900 M255.000 206.400 C 258.515 209.920,261.476 212.800,261.581 212.800 C 261.927 212.800,249.409 200.119,249.005 200.059 C 248.787 200.026,251.485 202.880,255.000 206.400 M136.993 212.900 L 132.600 217.400 137.100 213.007 C 139.575 210.591,141.600 208.566,141.600 208.507 C 141.600 208.218,141.074 208.720,136.993 212.900 M268.400 248.320 L 268.600 277.000 268.703 248.623 C 268.759 233.015,268.669 220.109,268.503 219.943 C 268.336 219.776,268.290 232.546,268.400 248.320 M130.553 227.800 C 130.553 230.440,130.618 231.468,130.697 230.084 C 130.775 228.701,130.774 226.541,130.695 225.284 C 130.616 224.028,130.552 225.160,130.553 227.800 M130.528 247.600 C 130.528 249.030,130.601 249.615,130.689 248.900 C 130.778 248.185,130.778 247.015,130.689 246.300 C 130.601 245.585,130.528 246.170,130.528 247.600 M107.400 323.362 C 107.400 363.711,107.535 396.640,107.700 396.538 C 107.865 396.436,108.000 363.423,108.000 323.176 C 108.000 282.929,107.865 250.000,107.700 250.000 C 107.535 250.000,107.400 283.013,107.400 323.362 M290.109 251.600 C 290.109 252.590,290.187 252.995,290.282 252.500 C 290.378 252.005,290.378 251.195,290.282 250.700 C 290.187 250.205,290.109 250.610,290.109 251.600 M130.493 251.600 C 130.493 252.370,130.575 252.685,130.676 252.300 C 130.776 251.915,130.776 251.285,130.676 250.900 C 130.575 250.515,130.493 250.830,130.493 251.600 M292.000 251.800 C 292.746 252.570,293.447 253.200,293.557 253.200 C 293.667 253.200,293.146 252.570,292.400 251.800 C 291.654 251.030,290.953 250.400,290.843 250.400 C 290.733 250.400,291.254 251.030,292.000 251.800 M97.393 260.100 L 93.000 264.600 97.500 260.207 C 101.680 256.126,102.182 255.600,101.893 255.600 C 101.834 255.600,99.809 257.625,97.393 260.100 M296.000 255.704 C 296.000 255.761,299.555 259.316,303.900 263.604 L 311.800 271.400 304.004 263.500 C 296.760 256.160,296.000 255.419,296.000 255.704 M130.567 265.600 C 130.567 269.890,130.626 271.645,130.698 269.500 C 130.770 267.355,130.770 263.845,130.698 261.700 C 130.626 259.555,130.567 261.310,130.567 265.600 M85.594 272.300 L 80.200 277.800 85.700 272.406 C 90.809 267.394,91.381 266.800,91.094 266.800 C 91.036 266.800,88.561 269.275,85.594 272.300 M268.595 336.200 C 268.595 368.760,268.642 382.021,268.700 365.669 C 268.758 349.316,268.758 322.676,268.700 306.469 C 268.642 290.261,268.595 303.640,268.595 336.200 M75.792 282.500 L 71.800 286.600 75.900 282.608 C 79.708 278.899,80.182 278.400,79.892 278.400 C 79.833 278.400,77.988 280.245,75.792 282.500 M322.600 282.800 C 325.012 285.220,327.076 287.200,327.186 287.200 C 327.296 287.200,325.412 285.220,323.000 282.800 C 320.588 280.380,318.524 278.400,318.414 278.400 C 318.304 278.400,320.188 280.380,322.600 282.800 M130.553 287.000 C 130.553 289.640,130.618 290.668,130.697 289.284 C 130.775 287.901,130.774 285.741,130.695 284.484 C 130.616 283.228,130.552 284.360,130.553 287.000 M67.784 290.900 C 67.680 291.175,67.640 310.750,67.697 334.400 L 67.800 377.400 68.000 333.900 C 68.110 309.975,68.149 290.400,68.087 290.400 C 68.026 290.400,67.889 290.625,67.784 290.900 M330.593 334.000 C 330.593 357.870,330.641 367.635,330.700 355.700 C 330.759 343.765,330.759 324.235,330.700 312.300 C 330.641 300.365,330.593 310.130,330.593 334.000 M289.714 333.800 C 289.717 334.900,289.795 335.303,289.887 334.695 C 289.979 334.086,289.977 333.186,289.882 332.695 C 289.787 332.203,289.711 332.700,289.714 333.800 M289.709 354.400 C 289.709 355.390,289.787 355.795,289.882 355.300 C 289.978 354.805,289.978 353.995,289.882 353.500 C 289.787 353.005,289.709 353.410,289.709 354.400 M130.548 368.000 C 130.548 370.310,130.614 371.255,130.695 370.100 C 130.776 368.945,130.776 367.055,130.695 365.900 C 130.614 364.745,130.548 365.690,130.548 368.000 M289.781 379.400 C 289.781 387.540,289.834 390.813,289.900 386.674 C 289.965 382.534,289.965 375.874,289.899 371.874 C 289.834 367.873,289.781 371.260,289.781 379.400 M130.528 380.800 C 130.528 382.230,130.601 382.815,130.689 382.100 C 130.778 381.385,130.778 380.215,130.689 379.500 C 130.601 378.785,130.528 379.370,130.528 380.800 M130.524 390.200 C 130.526 391.520,130.601 392.012,130.690 391.293 C 130.779 390.574,130.777 389.494,130.686 388.893 C 130.595 388.292,130.522 388.880,130.524 390.200 M363.371 396.389 C 363.083 396.677,351.516 396.776,326.504 396.704 C 291.814 396.605,290.087 396.634,290.690 397.300 C 291.584 398.287,363.472 398.398,363.850 397.413 C 364.188 396.532,363.882 395.878,363.371 396.389 M36.000 396.900 C 36.000 397.065,37.699 397.200,39.776 397.200 C 41.863 397.200,43.663 397.379,43.800 397.600 C 43.938 397.823,45.804 398.000,48.024 398.000 C 50.408 398.000,52.000 397.840,52.000 397.600 C 52.000 397.359,53.667 397.200,56.200 397.200 C 58.733 397.200,60.400 397.359,60.400 397.600 C 60.400 398.124,105.160 398.139,105.989 397.615 C 106.507 397.288,106.507 397.217,105.989 397.022 C 105.080 396.680,36.000 396.560,36.000 396.900 M139.125 396.699 C 142.493 396.766,147.893 396.766,151.125 396.699 C 154.356 396.632,151.600 396.577,145.000 396.577 C 138.400 396.577,135.756 396.632,139.125 396.699 M236.500 396.699 C 239.525 396.767,244.475 396.767,247.500 396.699 C 250.525 396.631,248.050 396.575,242.000 396.575 C 235.950 396.575,233.475 396.631,236.500 396.699 M263.500 396.693 C 264.435 396.777,265.965 396.777,266.900 396.693 C 267.835 396.609,267.070 396.540,265.200 396.540 C 263.330 396.540,262.565 396.609,263.500 396.693 " stroke="none" fill="#5f6b80" fill-rule="evenodd"></path><path id="path3" d="M166.600 182.800 C 165.072 184.340,163.937 185.600,164.077 185.600 C 164.218 185.600,165.473 184.413,166.867 182.962 L 169.400 180.324 169.601 288.462 L 169.802 396.600 169.901 288.300 C 169.955 228.735,169.860 180.000,169.689 180.000 C 169.518 180.000,168.128 181.260,166.600 182.800 M228.400 288.267 C 228.400 347.813,228.486 396.447,228.591 396.342 C 228.696 396.237,228.795 347.849,228.810 288.813 C 228.829 219.045,228.977 181.217,229.233 180.737 C 229.537 180.170,229.487 180.000,229.014 180.000 C 228.463 180.000,228.400 191.194,228.400 288.267 M230.800 182.200 C 231.546 182.970,232.247 183.600,232.357 183.600 C 232.467 183.600,231.946 182.970,231.200 182.200 C 230.454 181.430,229.753 180.800,229.643 180.800 C 229.533 180.800,230.054 181.430,230.800 182.200 M237.200 188.600 C 242.575 194.247,247.668 199.265,247.845 199.088 C 247.914 199.019,244.519 195.551,240.301 191.381 C 235.598 186.733,234.399 185.657,237.200 188.600 M152.785 197.116 C 128.623 221.567,130.391 219.625,130.470 221.631 L 130.540 223.400 130.689 221.779 C 130.872 219.790,130.842 219.826,140.920 209.600 C 145.365 205.090,152.415 197.935,156.587 193.700 C 160.759 189.465,164.082 186.000,163.971 186.000 C 163.860 186.000,158.826 191.002,152.785 197.116 M254.254 206.100 C 257.798 209.675,262.341 214.295,264.348 216.366 L 267.998 220.133 268.100 308.366 L 268.202 396.600 268.301 308.231 L 268.400 219.861 258.700 210.118 C 253.365 204.760,248.940 200.201,248.867 199.988 C 248.793 199.774,248.525 199.600,248.271 199.600 C 248.017 199.600,250.709 202.525,254.254 206.100 M130.563 238.800 C 130.563 242.430,130.623 243.915,130.698 242.100 C 130.772 240.285,130.772 237.315,130.698 235.500 C 130.623 233.685,130.563 235.170,130.563 238.800 M290.400 250.440 C 290.400 250.602,291.043 251.335,291.829 252.068 C 293.407 253.540,304.681 264.909,310.304 270.700 C 312.280 272.735,314.047 274.400,314.230 274.400 C 314.412 274.400,310.430 270.222,305.381 265.115 C 293.754 253.356,290.400 250.071,290.400 250.440 M104.376 253.100 C 99.754 257.966,79.565 278.886,74.460 284.100 C 71.714 286.905,69.557 289.291,69.668 289.401 C 69.779 289.512,70.467 288.927,71.197 288.101 C 73.146 285.898,84.657 273.959,100.600 257.604 L 107.000 251.038 107.203 291.619 L 107.406 332.200 107.503 291.300 C 107.556 268.805,107.452 250.400,107.270 250.400 C 107.089 250.400,105.786 251.615,104.376 253.100 M290.198 324.900 L 290.200 396.600 326.578 396.702 C 346.586 396.758,363.092 396.668,363.258 396.502 C 363.424 396.336,347.100 396.247,326.981 396.304 L 290.402 396.408 290.299 324.804 L 290.197 253.200 290.198 324.900 M130.501 274.600 C 130.505 275.480,130.587 275.793,130.683 275.295 C 130.779 274.798,130.775 274.078,130.675 273.695 C 130.575 273.313,130.496 273.720,130.501 274.600 M322.007 282.669 C 324.533 285.237,327.055 287.802,327.611 288.369 C 328.168 288.936,329.068 289.754,329.611 290.187 C 330.155 290.619,327.810 288.081,324.400 284.546 C 320.990 281.010,318.023 278.091,317.807 278.059 C 317.590 278.026,319.480 280.101,322.007 282.669 M68.098 333.884 L 68.000 377.169 67.100 378.034 L 66.200 378.899 67.095 378.438 C 68.459 377.736,68.427 378.933,68.308 333.400 L 68.196 290.600 68.098 333.884 M130.592 327.800 C 130.592 347.820,130.640 355.951,130.700 345.870 C 130.759 335.788,130.759 319.408,130.700 309.470 C 130.640 299.531,130.592 307.780,130.592 327.800 M107.346 338.200 C 107.347 340.400,107.414 341.249,107.495 340.087 C 107.576 338.924,107.576 337.124,107.493 336.087 C 107.411 335.049,107.345 336.000,107.346 338.200 M107.387 368.000 C 107.387 380.210,107.438 385.205,107.500 379.100 C 107.562 372.995,107.562 363.005,107.500 356.900 C 107.438 350.795,107.387 355.790,107.387 368.000 M130.540 375.200 C 130.540 377.070,130.609 377.835,130.693 376.900 C 130.777 375.965,130.777 374.435,130.693 373.500 C 130.609 372.565,130.540 373.330,130.540 375.200 M330.406 377.492 C 330.403 377.762,331.120 378.351,332.000 378.800 C 332.880 379.249,333.600 379.527,333.600 379.418 C 333.600 379.310,333.015 378.921,332.300 378.554 C 331.585 378.188,330.868 377.688,330.706 377.444 C 330.499 377.132,330.410 377.146,330.406 377.492 M60.700 381.829 C 59.205 382.640,59.296 382.978,60.800 382.200 C 61.460 381.859,62.000 381.494,62.000 381.390 C 62.000 381.132,61.957 381.147,60.700 381.829 M130.528 385.600 C 130.528 387.030,130.601 387.615,130.689 386.900 C 130.778 386.185,130.778 385.015,130.689 384.300 C 130.601 383.585,130.528 384.170,130.528 385.600 M46.879 390.054 C 45.712 390.734,44.834 391.367,44.927 391.461 C 45.096 391.630,49.200 389.209,49.200 388.940 C 49.200 388.712,49.094 388.763,46.879 390.054 M355.200 391.739 C 355.200 392.010,358.837 394.097,359.009 393.924 C 359.090 393.843,358.266 393.277,357.178 392.666 C 356.090 392.054,355.200 391.637,355.200 391.739 M130.520 394.400 C 130.520 395.610,130.595 396.105,130.687 395.500 C 130.778 394.895,130.778 393.905,130.687 393.300 C 130.595 392.695,130.520 393.190,130.520 394.400 M107.260 394.904 L 107.200 396.409 71.800 396.304 C 52.330 396.247,36.400 396.335,36.400 396.500 C 36.400 396.665,52.336 396.800,71.813 396.800 C 110.433 396.800,107.854 396.964,107.490 394.534 C 107.347 393.583,107.310 393.643,107.260 394.904 M38.200 395.200 C 37.540 395.637,37.180 395.992,37.400 395.988 C 37.801 395.982,39.976 394.423,39.600 394.412 C 39.490 394.408,38.860 394.763,38.200 395.200 M158.311 396.693 C 159.251 396.778,160.691 396.777,161.511 396.691 C 162.330 396.605,161.560 396.536,159.800 396.537 C 158.040 396.539,157.370 396.609,158.311 396.693 M255.900 396.695 C 257.055 396.776,258.945 396.776,260.100 396.695 C 261.255 396.614,260.310 396.548,258.000 396.548 C 255.690 396.548,254.745 396.614,255.900 396.695 " stroke="none" fill="#37465f" fill-rule="evenodd"></path><path id="path4" d="M169.505 124.683 C 170.002 124.779,170.722 124.775,171.105 124.675 C 171.487 124.575,171.080 124.496,170.200 124.501 C 169.320 124.505,169.007 124.587,169.505 124.683 M227.305 124.687 C 227.914 124.779,228.814 124.777,229.305 124.682 C 229.797 124.587,229.300 124.511,228.200 124.514 C 227.100 124.517,226.697 124.595,227.305 124.687 M206.931 149.400 C 206.933 150.940,207.005 151.521,207.092 150.691 C 207.179 149.861,207.177 148.601,207.089 147.891 C 207.000 147.181,206.929 147.860,206.931 149.400 M227.694 178.523 L 226.800 178.922 226.800 288.218 C 226.800 387.513,226.858 397.537,227.433 397.757 C 229.139 398.412,269.290 398.012,269.034 397.343 C 268.824 396.796,268.882 396.770,269.387 397.190 C 269.928 397.638,269.994 388.101,269.998 308.447 L 270.003 219.201 259.802 208.998 C 254.191 203.386,249.600 198.661,249.600 198.497 C 249.599 198.334,249.054 197.660,248.388 197.000 C 247.721 196.340,246.686 195.278,246.088 194.640 C 245.490 194.002,244.766 193.282,244.481 193.040 C 244.195 192.798,243.745 192.369,243.481 192.087 C 243.216 191.805,242.484 191.062,241.852 190.435 C 240.433 189.025,240.292 188.884,238.817 187.400 C 238.162 186.740,237.395 185.989,237.113 185.732 C 236.831 185.475,235.101 183.737,233.269 181.870 C 229.728 178.264,229.109 177.892,227.694 178.523 M158.898 188.374 C 151.522 195.737,149.024 198.465,149.354 198.797 C 149.683 199.130,149.630 199.183,149.152 199.001 C 148.394 198.712,147.067 199.875,147.340 200.588 C 147.442 200.854,147.346 201.326,147.125 201.636 C 146.801 202.092,146.765 202.074,146.935 201.539 C 147.323 200.318,146.677 200.391,145.907 201.656 C 145.488 202.345,144.678 203.290,144.107 203.755 C 143.536 204.220,142.604 205.102,142.035 205.715 C 141.466 206.328,138.165 209.692,134.700 213.192 L 128.400 219.555 128.400 291.801 C 128.400 339.863,128.534 363.964,128.800 363.800 C 129.020 363.664,129.215 363.788,129.233 364.076 C 129.252 364.364,129.340 365.050,129.430 365.600 C 129.892 368.434,129.984 371.237,129.606 371.004 C 129.383 370.866,129.200 371.044,129.200 371.400 C 129.200 371.756,129.020 371.936,128.800 371.800 C 128.548 371.645,128.400 372.556,128.400 374.256 C 128.400 377.167,129.024 377.401,129.317 374.600 C 129.409 373.720,129.433 374.305,129.371 375.900 C 129.308 377.495,129.379 378.800,129.528 378.800 C 129.678 378.800,129.824 379.518,129.853 380.394 C 129.881 381.271,129.746 381.890,129.553 381.771 C 129.359 381.651,129.200 382.103,129.200 382.776 C 129.200 383.449,129.020 384.000,128.800 384.000 C 128.288 384.000,128.272 387.889,128.783 388.067 C 128.994 388.140,129.197 389.010,129.233 390.000 C 129.332 392.663,129.244 393.274,128.800 393.000 C 128.223 392.644,128.297 395.337,128.880 395.920 C 129.253 396.293,129.240 396.400,128.819 396.400 C 128.491 396.400,128.641 396.715,129.200 397.200 C 130.591 398.407,169.752 398.456,171.139 397.253 L 172.000 396.506 171.994 287.353 C 171.990 226.519,171.836 178.440,171.645 178.741 C 171.381 179.157,171.110 179.180,170.477 178.841 C 170.024 178.599,169.481 178.400,169.270 178.400 C 169.060 178.400,164.392 182.888,158.898 188.374 M170.200 288.233 L 170.200 396.600 150.400 396.600 L 130.600 396.600 130.499 308.249 L 130.398 219.899 131.848 218.249 C 132.646 217.342,137.166 212.700,141.893 207.933 C 147.557 202.221,150.384 199.097,150.182 198.771 C 149.986 198.453,150.041 198.378,150.337 198.561 C 150.891 198.904,153.659 196.019,153.313 195.460 C 153.183 195.249,153.258 195.188,153.479 195.325 C 153.841 195.549,160.846 188.693,167.001 182.090 C 168.288 180.710,169.534 179.645,169.770 179.723 C 170.075 179.825,170.200 211.355,170.200 288.233 M244.024 194.840 C 252.261 203.223,261.196 212.358,263.880 215.140 L 268.759 220.200 268.780 307.250 C 268.791 355.127,268.688 394.862,268.550 395.550 L 268.300 396.800 248.350 396.800 L 228.400 396.800 228.400 288.200 C 228.400 228.470,228.546 179.600,228.724 179.600 C 228.902 179.600,235.787 186.458,244.024 194.840 M105.971 249.122 C 105.624 249.495,104.589 250.482,103.671 251.316 C 101.914 252.910,101.524 253.728,102.700 253.350 C 103.254 253.171,103.283 253.208,102.836 253.525 C 102.526 253.746,102.045 253.839,101.766 253.732 C 101.487 253.625,100.941 254.023,100.552 254.617 C 100.163 255.211,96.370 259.173,92.122 263.422 C 87.875 267.671,84.400 271.299,84.400 271.485 C 84.400 271.670,84.085 272.123,83.700 272.491 C 83.315 272.859,82.820 273.347,82.600 273.575 C 82.242 273.947,80.680 275.515,79.293 276.895 C 79.014 277.173,78.294 277.891,77.693 278.492 C 77.092 279.092,74.841 281.336,72.691 283.479 C 70.418 285.743,68.867 287.598,68.986 287.908 C 69.103 288.213,69.010 288.330,68.770 288.182 C 68.260 287.866,66.800 289.112,66.800 289.862 C 66.800 290.158,66.620 290.400,66.400 290.400 C 66.136 290.400,66.000 305.102,66.000 333.705 L 66.000 377.010 65.100 377.488 C 64.605 377.750,63.885 378.084,63.500 378.229 C 63.115 378.374,62.800 378.652,62.800 378.847 C 62.800 379.041,62.552 379.200,62.249 379.200 C 61.946 379.200,61.483 379.458,61.221 379.774 C 60.959 380.090,60.217 380.464,59.572 380.606 C 58.928 380.748,58.400 381.029,58.400 381.232 C 58.400 381.434,58.130 381.600,57.800 381.600 C 57.470 381.600,57.200 381.777,57.200 381.992 C 57.200 382.208,56.750 382.498,56.200 382.636 C 55.650 382.774,55.200 383.047,55.200 383.243 C 55.200 383.440,54.943 383.600,54.629 383.600 C 54.314 383.600,53.817 383.825,53.522 384.100 C 53.228 384.375,52.316 384.943,51.494 385.363 C 50.672 385.783,50.000 386.263,50.000 386.431 C 50.000 386.599,49.460 386.855,48.800 387.000 C 48.140 387.145,47.600 387.388,47.600 387.541 C 47.600 387.693,46.925 388.174,46.100 388.608 C 45.275 389.043,44.362 389.624,44.071 389.899 C 43.781 390.175,43.286 390.400,42.971 390.400 C 42.657 390.400,42.400 390.560,42.400 390.757 C 42.400 390.953,41.991 391.216,41.492 391.341 C 40.993 391.466,40.214 391.914,39.761 392.336 C 39.309 392.757,38.547 393.226,38.069 393.378 C 37.591 393.530,37.200 393.802,37.200 393.984 C 37.200 394.165,36.728 394.432,36.152 394.576 C 34.728 394.934,33.989 395.753,34.081 396.869 C 34.157 397.788,34.218 397.800,39.040 397.800 C 41.725 397.800,43.839 397.665,43.738 397.500 C 43.636 397.335,41.853 397.200,39.776 397.200 C 37.699 397.200,36.000 397.048,36.000 396.862 C 36.000 396.415,37.214 395.388,38.125 395.064 C 38.546 394.914,38.730 394.611,38.564 394.341 C 38.387 394.055,38.451 393.984,38.730 394.157 C 39.467 394.612,41.039 393.608,40.354 393.119 C 39.933 392.819,39.979 392.783,40.545 392.967 C 40.958 393.101,41.850 392.881,42.545 392.472 C 49.569 388.344,51.549 387.041,51.331 386.688 C 51.185 386.451,51.272 386.397,51.537 386.561 C 52.110 386.915,59.308 382.652,58.898 382.201 C 58.734 382.020,58.811 381.993,59.069 382.140 C 59.697 382.500,62.470 380.836,62.138 380.299 C 61.984 380.050,62.068 379.995,62.343 380.165 C 62.599 380.323,63.887 379.798,65.204 378.997 L 67.600 377.542 67.605 334.271 L 67.610 291.000 69.886 288.600 C 82.182 275.632,107.255 250.000,107.644 250.000 C 107.854 250.000,107.960 280.335,107.901 323.282 L 107.800 396.564 106.800 396.842 C 106.250 396.995,105.980 397.141,106.200 397.166 C 106.420 397.192,106.330 397.387,106.000 397.600 C 105.558 397.886,105.827 397.989,107.020 397.994 C 107.911 397.997,108.811 397.829,109.020 397.620 C 109.259 397.381,109.326 369.607,109.200 322.920 L 109.000 248.600 107.800 248.522 C 107.100 248.476,106.338 248.726,105.971 249.122 M288.600 248.800 C 288.464 249.020,288.543 249.200,288.776 249.200 C 289.039 249.200,289.200 250.421,289.200 252.424 C 289.200 254.471,289.054 255.557,288.800 255.400 C 288.534 255.236,288.382 274.443,288.347 312.676 C 288.273 391.488,288.288 394.084,288.810 394.406 C 289.052 394.556,289.194 395.380,289.125 396.239 C 289.007 397.708,289.070 397.808,290.194 397.936 L 291.389 398.071 290.594 397.193 C 289.865 396.388,289.515 250.809,290.240 250.037 C 290.484 249.777,293.967 253.153,303.204 262.600 C 307.936 267.440,316.036 275.709,321.204 280.976 L 330.600 290.553 330.800 334.105 L 331.000 377.657 333.512 379.045 C 334.894 379.808,336.227 380.307,336.474 380.154 C 336.734 379.993,336.813 380.055,336.661 380.301 C 336.327 380.842,341.483 383.712,342.127 383.343 C 342.387 383.194,342.466 383.219,342.302 383.400 C 342.026 383.705,343.908 384.980,348.082 387.316 C 349.027 387.844,352.269 389.669,355.287 391.370 C 358.441 393.148,360.976 394.339,361.249 394.170 C 361.539 393.991,361.618 394.047,361.453 394.315 C 361.294 394.572,361.780 395.038,362.625 395.439 C 363.798 395.995,364.036 396.300,363.890 397.062 C 363.691 398.104,364.517 398.354,365.338 397.500 C 366.280 396.521,365.532 394.937,363.967 394.593 C 363.325 394.452,362.800 394.183,362.800 393.995 C 362.800 393.807,362.395 393.528,361.900 393.373 C 361.405 393.219,360.910 392.972,360.800 392.825 C 360.522 392.454,357.775 391.200,357.240 391.200 C 356.998 391.200,356.800 391.024,356.800 390.810 C 356.800 390.595,355.990 390.051,355.000 389.600 C 354.010 389.149,353.200 388.605,353.200 388.390 C 353.200 388.176,352.945 388.000,352.632 388.000 C 352.108 388.000,349.660 386.859,349.200 386.400 C 348.795 385.995,347.380 385.170,346.700 384.942 C 346.315 384.812,346.000 384.562,346.000 384.385 C 346.000 384.208,345.460 383.945,344.800 383.800 C 344.140 383.655,343.600 383.374,343.600 383.176 C 343.600 382.978,343.150 382.702,342.600 382.564 C 342.050 382.426,341.600 382.153,341.600 381.957 C 341.600 381.760,341.330 381.600,341.000 381.600 C 340.670 381.600,340.400 381.440,340.400 381.243 C 340.400 381.047,339.950 380.774,339.400 380.636 C 338.850 380.498,338.400 380.222,338.400 380.024 C 338.400 379.826,337.860 379.545,337.200 379.400 C 336.540 379.255,336.000 378.971,336.000 378.768 C 336.000 378.566,335.640 378.400,335.200 378.400 C 334.760 378.400,334.400 378.240,334.400 378.043 C 334.400 377.847,333.943 377.572,333.384 377.432 C 332.825 377.291,332.475 377.002,332.607 376.788 C 332.739 376.575,332.657 376.400,332.424 376.400 C 332.128 376.400,332.000 363.339,332.000 333.203 L 332.000 290.006 326.414 284.456 C 323.341 281.403,320.731 279.002,320.614 279.120 C 320.496 279.237,320.400 279.044,320.400 278.690 C 320.400 277.737,316.548 273.861,315.962 274.224 C 315.644 274.420,315.580 274.356,315.777 274.038 C 316.270 273.239,291.179 248.400,289.878 248.400 C 289.311 248.400,288.736 248.580,288.600 248.800 M289.090 262.893 C 289.001 263.612,288.926 263.120,288.924 261.800 C 288.922 260.480,288.995 259.892,289.086 260.493 C 289.177 261.094,289.179 262.174,289.090 262.893 M289.093 342.889 C 289.009 343.830,288.939 343.160,288.937 341.400 C 288.936 339.640,289.005 338.870,289.091 339.689 C 289.177 340.509,289.178 341.949,289.093 342.889 M289.083 393.295 C 288.987 393.793,288.905 393.480,288.901 392.600 C 288.896 391.720,288.975 391.313,289.075 391.695 C 289.175 392.078,289.179 392.798,289.083 393.295 M52.000 397.500 C 52.000 397.665,53.890 397.800,56.200 397.800 C 58.510 397.800,60.400 397.665,60.400 397.500 C 60.400 397.335,58.510 397.200,56.200 397.200 C 53.890 397.200,52.000 397.335,52.000 397.500 " stroke="none" fill="#828c9c" fill-rule="evenodd"></path></g></svg>