<?xml version="1.0" encoding="UTF-8"?>
<svg version="1.1" viewBox="0 0 1024 1536" width="1024" height="1536" xmlns="http://www.w3.org/2000/svg">
<path transform="translate(0)" d="m0 0h1024v1536h-1024z" fill="#0E0706"/>
<path transform="translate(633,385)" d="m0 0 11 6 12 8 12 11 7 7 11 16 8 18 4 16 1 8v18l-3 19-6 18-10 17-8 10-9 10-17 13-15 9-27 13-30 11-30 9h100l28-2 19-2 23-5 20-7 16-8 12-8 10-9 5-5v13l-4 20-6 17-9 17-7 9-9 10-10 9-13 8-14 7-18 6-20 4-23 2h-36l-38-2h-49l-20 4-16 6-14 9-10 9-8 9-10 16-4 8v2l7-4h2v-2l15-7 15-5 14-3 20-2h109l22-4-3 9-8 16-8 11-9 10-14 11-16 8-17 5-20 3-49 1-22 2-21 5-12 5-10 6-12 11-9 12-8 17-4 18v29l5 23 2 3 2 6 4 10 8 14 10 15 6 7-1 2-13-13-7-8-7-7-11-14-10-13-8-11-10-16-9-16-13-28-8-22-10-35-3-16-3-26v-36l3-27 6-25 9-24 10-19 8-12 8-10 11-12 11-10 9-7 1 2-8 16-5 12-5 18-2 12v31l9-20 10-18 12-17 10-11 7-8 8-7 12-10 21-14 18-10 31-15 36-15 29-14 14-8 13-10 8-7 10-13 7-14 4-13 2-12v-15l-2-16-5-16z" fill="#FD6702"/>
<path transform="translate(391,586)" d="m0 0 1 3-3 1 2 2-7 7-8 7-9 10-11 16-10 18-6 14-7 21-5 25-2 20v36l4 33 6 24 10 32 10 23 11 23 11 18 11 16 8 10 11 14 11 12 15 16 3 2-8-10-9-14-8-14-3-8-5-12-4-20v-29l4-18 8-17 9-12 9-9 10-7 13-6 18-5 14-2 14-1 49-1 20-3 17-5 16-8 10-8 10-9 10-14 8-16 4-9-16 4-6 1h-109l-26 3-18 5-9 4-8 4h-3v2l-9 5-1-3 8-15 10-14 12-12 14-9 10-5 17-5 12-2h49l38 2h36l23-2 24-5 16-6 16-8 11-8 3-1v7l-5 7-9 6-5 5-11 8-6 2-6 4-4 3-17 9-9 7-5 1-6 5-7 14-8 11-6 1 1 3-4 4-1 6-5 5-3 7-9 10-4 3-7 3-5 2v2l-12 8-21 8-15 4-18 5-15 2-7 2-6 2-9 6-10 5-8 3-12 7-1 4-4 5h-4l-4 8-4 6-6 14-3 9-2 8v17l2 26 3 22v-39h2v13l2 33 1 11-4 2v-2l2-1v-6h-2l-1 9-8 1-9-2-4-2v2l11 3v1h-6l-23-11-12-7-5-3-7-7-8-4-10-9-8-8-7-8-6-9-7-9-9-11-4-5-3-5-6-9-4-8-2-9-4-9-6-12-3-14-3-7-2-16v-48h2v22h2v-21l2-5 1-10 6-20v-9l-4 19-6 18-1-4 6-20 3-17 9-25 1-3-6 15-2 7-5-2 1-6 2-4 3-9 3-7 10-21 2-10 10-14 5 1 2-4-4-1 2-6h2l2-5 2-1-1 9 1 2 6-8 2-3-7-1 6-7 7-10 2 2 2 4 5-4 1-5-5-1 6-7 3-1 2 2-3 4 7-6 5 1 2-1-1-2 7-3 4-4z" fill="#270702"/>
<path transform="translate(400,584)" d="m0 0 1 2-3 5-5 4-18 27-11 17-12 25-9 27-4 21-2 17v34l1 13 9-3 10-6 7-9 6-14 5-20 3-4 7-3 11-11 13-18 9-11 4-2 2-4 8-6 8-7 6-5h2v-2l21-11 7-1 30-10h8l1 5-4 4-24 8-14 7-2 2-2 11-6 17-7 16-4 12-6 8-4 12h-2v3h-2l-1 5h-2l-2 6-4 9-5 15-2 7 8-7 8-8 8-6h2v-2l15-7 15-5 14-3 20-2h109l22-4-3 9-8 16-8 11-9 10-14 11-16 8-17 5-20 3-49 1-22 2-21 5-12 5-10 6-12 11-9 12-8 17-4 18v29l5 23 2 3 2 6 4 10 8 14 10 15 6 7-1 2-13-13-7-8-7-7-11-14-10-13-8-11-10-16-9-16-13-28-8-22-10-35-3-16-3-26v-36l3-27 6-25 9-24 10-19 8-12 8-10 11-12 11-10z" fill="#FDBA02"/>
<path transform="translate(600,575)" d="m0 0h8l12 2 2 4-1 1v6l1 4-3 3-18 8-27 10-30 9h100l28-2 19-2 23-5 20-7 16-8 12-8 10-9 5-5v13l-4 20-6 17-9 17-7 9-9 10-10 9-13 8-14 7-18 6-20 4-23 2h-36l-38-2h-49l-20 4-16 6-14 9-10 9-8 9-10 16-4 8v2l2 1-10 9-7 7h-2l2-11 4-11 7-15h2l1-5h2v-3h2l1-5 3-8 6-9 3-10 5-11 6-15 3-10 1-8 8-6 17-7 16-5 3-3v-4h-8l-33 11-6 1-17 9h-2v2l-9 7-7 6-9 7-5 5-11 14-12 16-11 11-7 3-2 2 2-10 9-26 6-11 8-5h2l1-2 7-4 14-12 15-11 15-10 15-8 8-5 13-5 16-4 28-12 19-10 16-8 13-4z" fill="#FD8302"/>
<path transform="translate(391,586)" d="m0 0 1 3-3 1 2 2-7 7-8 7-9 10-11 16-10 18-6 14-7 21-5 25-2 20v36l4 33 6 24 10 32 10 23 11 23 11 18 11 16 8 10 11 14 11 12 15 16 4 4v2l-6 1-9-2-4-2v2l11 3v1h-6l-23-11-12-7-5-3-7-7-8-4-10-9-8-8-7-8-6-9-7-9-9-11-4-5-3-5-6-9-4-8-2-9-4-9-6-12-3-14-3-7-2-16v-48h2v22h2v-21l2-5 1-10 6-20v-9l-4 19-6 18-1-4 6-20 3-17 9-25 1-3-6 15-2 7-5-2 1-6 2-4 3-9 3-7 10-21 2-10 10-14 5 1 2-4-4-1 2-6h2l2-5 2-1-1 9 1 2 6-8 2-3-7-1 6-7 7-10 2 2 2 4 5-4 1-5-5-1 6-7 3-1 2 2-3 4 7-6 5 1 2-1-1-2 7-3 4-4z" fill="#270703"/>
<path transform="translate(641,732)" d="m0 0h2l-3 9-8 16-8 11-9 10-14 11-16 8-17 5-20 3-49 1-22 2-21 5-12 5-10 6-12 11-9 12-8 17-4 18v35h-1l-2-11-3-4-2-7v-15l3-17 6-16 7-13 5-8 3-12 5-12 6-15 6-9 7-7 13-9 17-8 19-5 23-3h8l2-8-11-1v-1h109z" fill="#FDCB0D"/>
<path transform="translate(633,385)" d="m0 0 11 6 12 8 12 11 7 7 11 16 8 18 4 16 1 8v18l-3 19-6 18-10 17-8 10-9 10-3 1-4-8 3-5 8-10 5-10v-5l-6 2-13 1-9 2-10 4-8 3-10 5-17 7-19 7-10 5-12 3-20 8-8 4-15 4-13 5-20 3-6 2h-10l-3 1-2-4 14-10 11-6 3-3 16-8h2v-2l12-6 9-2 15-7 9-2v-2l7-1v-2l17-8 10-4 19-11 16-12 7-7v3l1 1 5-2-1-8 6-8 8-16 4-12 2-12v-15l-4-17-7-14-7-7z" fill="#FB4A02"/>
<path transform="translate(628,764)" d="m0 0 2 4-4 6-3 2-1 4-6 8-8 7-7 3-5 2v2l-12 8-21 8-15 4-18 5-15 2-7 2-6 2-9 6-10 5-8 3-12 7-1 4-4 5h-4l-4 8-4 6-6 14-3 9-2 8v17l2 26 3 22v-39h2v13l2 33 1 11-4 2v-2l2-1v-6h-2l-1 9h-2l-2-5-7-9-9-14-8-14-3-8-5-12-4-20v-29l4-18 8-17 9-12 9-9 10-7 13-6 18-5 14-2 14-1 49-1 20-3 17-5 16-8 10-8 10-9 5-5z" fill="#270702"/>
<path transform="translate(774,580)" d="m0 0 1 2-3 7-7 9-10 9-13 8-14 6-11 4h-3l2 13 3 16v7l-3 6-2 3-16 7-21 6-19 3-13 1h-32l-35-2-7-1 1-5 9-10 10-8 10-7 10-8 4-6v-5l-29-2-3-3v-5l-1-2 62-1 28-2 19-2 23-5 20-7 16-8 12-8 10-9z" fill="#FDBA02"/>
<path transform="translate(438,666)" d="m0 0 5 2-1 6-7 7-8 10-10 15-10 19-9 24-6 24-4 27 5 2 2 4h2v2h2l2 2 11-19 10-14 16-16 8-6h2v-2l15-7 15-5 14-3 8-1h27l-3 3-3 6-31 4-19 5-19 9-13 10-8 9-6 13-6 17-2 6-4 11-7 11-7 16-4 15-1 8v15l3 9 2 1 1 12h2l4 17 2 3 2 6 4 10 8 14 10 15 6 7-1 2-13-13-7-8-7-7-11-14-10-13-6-8-4-13-14-27-10-22-7-20-3-9v-5l4-1 9 24 8 17 4 7v2l6-4 2-4v-10l-1-11v-47l3-24 5-23 10-30 11-22 11-17 9-11 8-9z" fill="#FDEB8A"/>
<path transform="translate(776,576)" d="m0 0h1v13l-4 20-6 17-9 17-7 9-9 10-10 9-13 8-14 7-18 6-20 4-23 2h-36l-38-2h-49l-20 4-16 6-14 9-10 9-8 9-10 16-4 8v2l2 1-10 9-7 7h-2l2-11 4-11 7-15h2l1-5h2v-3h2v-3l21-21 13-9 12-6 15-5 10-2 10-1h45l45 2h32l21-2 19-4 18-6 8-4h3l2-4 2-5v-7l-5-27 1-2 24-9 14-8 10-8 7-8 4-7 1-4v-3z" fill="#FD6602"/>
<path transform="translate(671,557)" d="m0 0v3l1 5 2-1 2 12v6h4l6 3 15 5 16 1h12l8 3v-2h6l3 3 1 2h5l-4 3-14 7-24 8-19 4-29 3-18 1h-104l4-2 36-11 26-10 25-12 15-9 13-10 8-7z" fill="#280702"/>
<path transform="translate(600,575)" d="m0 0h8l12 2 2 4-1 1v6l1 4-3 3-18 8-27 10-13 4h-6l-3-6-10 2-17 5-25 10-13 6v2l-14 5-6 1-17 9h-2v2l-9 7-7 6-9 7-5 5-11 14-12 16-11 11-7 3-2 2 2-10 9-26 6-11 8-5h2l1-2 7-4 14-12 15-11 15-10 15-8 8-5 13-5 16-4 28-12 19-10 16-8 13-4z" fill="#FD8402"/>
<path transform="translate(572,513)" d="m0 0h5l2 3h-3l-9 1-1 1-10 1-2 1 9 2h2l4-4 9 1-4 3-21 10-24 10-25 11-24 12-18 11-14 10-11 9-13 12-9 11-8 10-10 16-10 19-5 12-2 1v-32l4-20 6-18 8-17 4-5 9-1 10-4 14-6 6-2-3-1-23 9-6 3-2-1 16-8 26-10 13-6 7-2 19-10 13-5 13-6 3-2 9-2 6-4 12-5 9-4 13-2z" fill="#280702"/>
<path transform="translate(633,385)" d="m0 0 11 6 12 8 12 11 7 7 11 16 8 18 4 16v8h-1l-1-7h-6l-1 3v26l-2-3v-2l-9 3-8 5-8 4-14 3-16 7-6 3-11 1v-5l11-12 3-2-1 4 6-2-1-8 6-8 8-16 4-12 2-12v-15l-4-17-7-14-7-7z" fill="#F32F02"/>
<path transform="translate(470,653)" d="m0 0 2 1-1 1-2 11-6 17-7 16-4 12-6 8-4 12h-2v3h-2l-1 5h-2l-2 6-4 9-5 15-1 8-10 14-9 16-4 4-1-3h-2v-2h-2l-5-5-2-1v-9l4-23 7-25 9-22 8-15 3-5 4 1h7l8-4 3-4h2l2-6 2-5v-6l-2-3 1-4 14-11z" fill="#FDBA02"/>
<path transform="translate(641,732)" d="m0 0h2l-3 9-8 16-8 11-9 10-14 11-16 8-17 5-20 3-49 1-22 2-21 5-12 5-10 6-12 11-9 12-8 17-4 18v35h-1l-2-11-3-4-2-7v-15l3-17 6-16 7-13 5-5 9-10 12-9 16-7 18-5 15-2 15-1 51-1 19-3 12-4 16-8 11-8 3-4v-9l-2-6v-5l8-3 1-5h-53l2 4 3 2-5-1-4-6 2-1 58-1z" fill="#FD8002"/>
<path transform="translate(331,678)" d="m0 0 3 1-2 10-4 21-2 20v36l4 33 6 24 10 32 10 23 11 23 11 18 11 16 8 10 5 7h-3l-7-8-11-6-8-10-13-18-13-21-9-16-11-25-10-30-5-23-3-21v-28l2-19 6-5 7-19 2-16z" fill="#530F02"/>
<path transform="translate(607,746)" d="m0 0 4 1h-2l3 11v9l-5 6-10 7-16 8-12 4-19 3-51 1-28 2 5-4 9-8-1-3 4-5 2-4 5-4 4-4 10-3 2-2h3l1 4 3-1 4 5 9 3 12 2 6 2 6 1h8l10-5 4-5 3-10-1-8z" fill="#FEBA02"/>
<path transform="translate(637,392)" d="m0 0 4 4 7 12 5 16 1 6v15l-3 16-6 15-7 12-4 5v8l-3 3h-5l1-3-8 8-17 12-22 12-10 4-9 4h-2v2l-7 1v2l-14 5-12 6-9 2-17 8-7 1-3-2-1-5 3-3 27-13 36-15 29-14 14-8 13-10 8-7 10-13 7-14 4-13 2-12v-15l-2-16-3-11z" fill="#FD6502"/>
<path transform="translate(523,684)" d="m0 0h45l45 2 11 2h4 17l2 7 10 1v1l-13 1h-36l-38-2h-49l-20 4-16 6-14 9-10 9-8 9-10 16-4 8v2l2 1-10 9-7 7h-2l2-11 4-11 7-15h2l1-5h2v-3h2v-3l21-21 13-9 12-6 15-5 10-2z" fill="#FD6602"/>
<path transform="translate(383,762)" d="m0 0 1 4-4 21-2 18v47l1 11v10l-4 6-5 2-11-21-8-20-2-9-3 1 1 8 7 21 11 25 17 34 1 6-4-4-8-13-9-16-13-28-8-22-10-35-3-16v-14l7-1 3 1 4 23 7 25v2l8-4 12-12 3-2v-10l-1-10v-13l4-6 6-7h2z" fill="#FDCC0D"/>
<path transform="translate(569,623)" d="m0 0h13l2 2v7l31 2 1 1-1 7-7 8-8 6-17 12-8 8-3 4-1 4h7v1l-27-1-11-1v-7l5-10 9-12 6-7 4-4 2-6v-6z" fill="#FE9102"/>
<path transform="translate(471,808)" d="m0 0 4 1-8 4-5 5-17 11-8 7-9 16-5 11-9 31v16l4 25 3 14 2 13 1 6-2 1-6-11-4-7-3-8-5-12-4-20v-29l4-18 8-17 9-12 9-9 10-7 13-6z" fill="#3D0902"/>
<path transform="translate(371,700)" d="m0 0 4 1-1 27-1 8-4 13-6 12-7 8-13 7h-5l-2-13v-34l3-23h1l2 6 9-1 10-6 7-3h3z" fill="#FE9102"/>
<path transform="translate(400,584)" d="m0 0 1 2-3 5-5 4-18 27-11 17-12 25-9 27-4 21-2 17-1 39-4 1-6-6v-44l3-21 6-23 8-21 10-19 8-12 8-10 11-12 11-10z" fill="#FDD205"/>
<path transform="translate(523,625)" d="m0 0h9l1 8-2 2-13 3-3 9-2 1-2-1v2h-2l-2 5-7 9-7 6-9 12-7 10-2 4-10 12-8 7-14 14 2-9 6-8 4-12 5-11 6-15 3-10 1-8 8-6 17-7 16-5 3-3v-4l-6-1v-1z" fill="#FE9102"/>
<path transform="translate(407,723)" d="m0 0 2 3 1 19 1 8 2-3 6 9 5 3v7l-1 8-10 14-9 16-4 4-1-3h-2v-2h-2l-5-5-2-1v-9l4-23 7-25z" fill="#FDCC0D"/>
<path transform="translate(584,582)" d="m0 0h13l10 2 2 2-1 14-20 8-27 9h-6l-3-6-10 2-7 2h-7l2-5 4-3h2v-2l14-6 17-12 11-4z" fill="#FD9002"/>
<path transform="translate(310,782)" d="m0 0h1l4 24 6 22 9 25 9 20 13 23 14 21 12 16 3 3v2l5 2 7 4 7 8 5 3 9 11 4 5-4 1-9-5-10-9-7-7-6-7-8-7-6-9-6-7-6-4-9-12-9-17-6-9-5-10-7-21-5-9-3-10-3-7-2-15 1-7 1-10z" fill="#3F0902"/>
<path transform="translate(396,591)" d="m0 0 1 2-8 18-6 21-3 15-1 27-9 3-5 2-10 6-11 2 2-9 8-21 10-20 10-15 19-28z" fill="#FD8402"/>
<path transform="translate(762,600)" d="m0 0h1v10l-5 12-8 15-7 9-6 7-8 7-13 9-2-1 3-4 1-3v-7l-5-27 1-2 24-9 14-8z" fill="#FE9102"/>
<path transform="translate(506,629)" d="m0 0h8l1 5-4 4-24 8-19 9-12 8-10 8 1 4 1 2-1 9-4 8-5 5-8 4h-7l-3-3 10-14 11-12 2-6-5-1-4 2 6-7 13-10 13-8 10-5z" fill="#FDDA06"/>
<path transform="translate(497,622)" d="m0 0h4v2h2l-1 3-15 7v2l-14 5-6 1-17 9h-2v2l-9 7-7 6-9 7-5 5-11 14-12 16-11 11-7 3-2 2 2-10 5-15 8-2 8-6 7-8 4-5 8-7 10-10 11-9 13-10 21-11 18-8z" fill="#FE9102"/>
<path transform="translate(311,732)" d="m0 0h1l1 24 6 32 6 27 9 29 11 27 11 23 11 20 9 14-1 2-8-10-14-21-12-21-8-16-8-20-8-24-5-23-3-21v-28l1-11z" fill="#FA5402"/>
<path transform="translate(331,777)" d="m0 0 7 1 4 23 7 25v5l-3 1 1 8 7 21 11 25 17 34 1 6-4-4-8-13-9-16-13-28-8-22-10-35-3-16v-14z" fill="#FDD005"/>
<path transform="translate(371,700)" d="m0 0 4 1-1 19-3 3-10 8-8 7-11 5h-5v-24l2-13h1l2 6 9-1 10-6 7-3h3z" fill="#FE8502"/>
<path transform="translate(512,736)" d="m0 0h50l1 4 2 2-1-4h55l-1 6-3 2-14 2h-44l-44-1v-1h8l2-8-11-1z" fill="#FDD505"/>
<path transform="translate(702,616)" d="m0 0h5l-2 1v9l-12 3-14 1v2l-33 2h-16l-10-1-3-6v-3l45-3 29-3z" fill="#FDD405"/>
<path transform="translate(636,420)" d="m0 0h1l-1 7-5 15-3 12 1 3 5-22 4-5 2 1 2-7h1v15l-3 16-6 16-7 11-11 13-14 11-14 9-4-2 3-3h2l2-5 8-6 8-7 9-11 4-6 4-10 3-16 5-19z" fill="#290702"/>
<path transform="translate(484,706)" d="m0 0 1 2-4 8-4 5-2 5 1 6 1 3 8 1h7v3l-21 5-12 5-8 4h-3v2l-9 5-1-3 8-15 10-14 12-12 14-9z" fill="#3F0902"/>
<path transform="translate(557,529)" d="m0 0 6 1 2 2v5l-16 8-9 3v2l-14 7-9 2-17 8-7 1-3-2-1-5 3-3 27-13 36-15z" fill="#FDB102"/>
<path transform="translate(424,601)" d="m0 0h5l-6 8-11 12-14 21-11 21-5 12-2 1v-32l2-12 3 1 8-7 6-7 5-6 15-8z" fill="#3D0902"/>
<path transform="translate(469,755)" d="m0 0h2v2l-13 9-8 11-11 19-6 12-5 6-3 5-5 4-6 7-1-2 6-18 8-21 6-10 8-8 13-9z" fill="#FDDC05"/>
<path transform="translate(774,580)" d="m0 0 1 2-3 7-7 9-10 9-13 8-14 6-11 4-9 2h-5l2-1v-11l15-4 21-8 14-8 12-9z" fill="#FDD305"/>
<path transform="translate(331,678)" d="m0 0 3 1-2 10-4 21-2 20-1 19-1 1-9-1-3-3-1-19 6-5 7-19 2-16z" fill="#3E0902"/>
<path transform="translate(376,811)" d="m0 0h1l1 41 1 11v10l-4 6-5 2-11-21-2-5v-3l7-1 11-13z" fill="#FEDD05"/>
<path transform="translate(400,584)" d="m0 0 1 2-3 5-5 4-18 27-11 17-3 6-1-2h-7l-2 1-1-3 8-14 10-13 12-13 11-10z" fill="#FDCB05"/>
<path transform="translate(410,833)" d="m0 0 4 6v7l-8 15-4 15-1 6v35h-1l-2-11-3-4-2-7v-15l3-17 6-16 7-13z" fill="#FCB10A"/>
<path transform="translate(417,840)" d="m0 0 1 3-4 11-5 22-4 15-1 6v10l6 21 3 12 1 2v11l-2-2-3-8-5-12-4-20v-29l4-18 8-17z" fill="#551002"/>
<path transform="translate(549,610)" d="m0 0 4 1 2 6 3 1-14 4 10 1-2 1-1 4-4 1v-5l-24 2-15 3-18 6h-5l4-3 20-9 22-8z" fill="#FD6702"/>
<path transform="translate(581,590)" d="m0 0h12l4 4v9l-1 2-16 6h-5l-4-6-7-1 2-5 7-6z" fill="#FDB502"/>
<path transform="translate(393,764)" d="m0 0h1v6l8 16 6 7 2 1-2 5-6 11h-3v-2h-2v-2h-2l-5-5-2-1v-9l4-23z" fill="#FEDD05"/>
<path transform="translate(488,560)" d="m0 0 2 1 1 5 6 1 7-3 3 1-18 9h-2l-1 3-16 9-6 1-5-5 1-4 5-5 21-12z" fill="#FD7E02"/>
<path transform="translate(632,734)" d="m0 0h8l-5 4-5 2-3 9-7 11-9 10v-3-9l-2-6v-5l8-3 1-5h-53l2 4 3 2-5-1-4-6 2-1 58-1z" fill="#FE9202"/>
<path transform="translate(636,420)" d="m0 0h1l-1 7-5 15-3 12 1 3 5-22 4-5 2 1 2-7h1v15l-3 16-6 16-3 3v-4h-3l1-10h-2l-1 7-2 1 2-16 6-22z" fill="#2A0702"/>
<path transform="translate(444,671)" d="m0 0 3 4 1 2-1 9-4 8-5 5-8 4h-7l-3-3 10-14 11-12z" fill="#FDCC0D"/>
<path transform="translate(645,672)" d="m0 0h13l5 5v4h-2l-1 3h-2v2h-31l-2-5 8-5 7-3z" fill="#FDCB0D"/>
<path transform="translate(689,679)" d="m0 0 3 1-11 4-3 3-4 2-2 5-5 2h-23l-1-2 4 1-2-4v-3l-17 1h-4l-8-1v-1l29-1 21-2 19-4z" fill="#FD8402"/>
<path transform="translate(311,732)" d="m0 0h1l1 24 3 24 4 21 2 10 2 8v9l-3-4-4-13-3-12-1-15h-2l-2-10v-28l1-11z" fill="#FBA204"/>
<path transform="translate(582,517)" d="m0 0 5 1v7l-2 4-5 4-10 4-9 4h-2v2l-7 1v2l-9 3-3-1 24-11v-5l-5-4z" fill="#FD8B02"/>
<path transform="translate(347,857)" d="m0 0h4l1 3 3 3 9 21 18 36 1 6-4-4-8-13-9-16-13-28-2-5z" fill="#FCBF05"/>
<path transform="translate(506,629)" d="m0 0h8l1 5-4 4-24 8-8 3 2-9h-2v-2z" fill="#FEBA02"/>
<path transform="translate(633,385)" d="m0 0 11 6 12 8 12 11 4 4v5l-4 1-2-1v-3h-2v-2l-4-1-7-6-5-2-2 1-7-11-3-1z" fill="#FA4602"/>
<path transform="translate(774,580)" d="m0 0 1 2-3 7-7 9-10 9-13 8-6 3-2-1 7-8 8-6 4-6 15-12z" fill="#FDC70B"/>
<path transform="translate(338,857)" d="m0 0 2 2 9 21 15 29 12 19-1 2-8-10-14-21-12-21-3-5v-3l4-1-4-9z" fill="#F73C02"/>
<path transform="translate(762,600)" d="m0 0h1v10l-5 12-6 12-2-3-4-11 1-7 5-5z" fill="#FE8502"/>
<path transform="translate(326,729)" d="m0 0h1l1 12h3l2-3 2 1 1 13v16l-4 1-6-6z" fill="#FDDC05"/>
<path transform="translate(454,731)" d="m0 0 2 2 2 13h2l-1 3-8 4h-3v2l-9 5-1-3 8-15z" fill="#591102"/>
<path transform="translate(644,697)" d="m0 0h12l-5 5-6 2h-28l-7-3-2-1v-2z" fill="#3D0902"/>
<path transform="translate(702,616)" d="m0 0h5l-2 1v9l-12 3-14 2h-9l4-2 9-1 2-6 2-3 7-2z" fill="#FDEB89"/>
<path transform="translate(580,610)" d="m0 0 2 1-3 1 1 5 2 4 2 1-30 1h-14l4-2z" fill="#3E0902"/>
<path transform="translate(691,610)" d="m0 0 8 1 6 4-3 2-11 2-29 3h-5l3-2 9-3 8-3z" fill="#440B02"/>
<path transform="translate(410,833)" d="m0 0 4 6v7l-8 15-2 7h-1l-1-8-2-3 1-8 8-15z" fill="#FDB002"/>
<path transform="translate(488,560)" d="m0 0 2 1 1 5 6 1 7-3 3 1-24 12-3 1-4-3-1-5 2-4z" fill="#FD8E02"/>
<path transform="translate(423,819)" d="m0 0 3 1 1 4h2l-1 5-8 8-5 7h-1l-2-6-1-7 7-6z" fill="#FD8B02"/>
<path transform="translate(476,639)" d="m0 0 5 1-1 7-5 5-11 5-3-7-2-2 14-8z" fill="#FDCB0D"/>
<path transform="translate(338,925)" d="m0 0 3 1 3 5 7 8 5 5 13 14 14 9 9 8-1 2-7-4-5-5-13-8-16-17-8-9-4-7z" fill="#0E0707"/>
<path transform="translate(632,623)" d="m0 0h7l-1 10h8v1h-16l-10-1-3-6v-3z" fill="#FDCC0E"/>
<path transform="translate(288,802)" d="m0 0h3l1 25 5 15 2 11 3 5-1 4-6-8-4-18-3-9-1-10v-10z" fill="#0E0707"/>
<path transform="translate(680,559)" d="m0 0h3l6 14 11 11 3 1 21 1h6v2l-11 1-16-1-6-2-5-5-11-7-1-3z" fill="#270703"/>
<path transform="translate(632,734)" d="m0 0h8l-5 4-10 5-8 2 1-6h-53l2 4 3 2-5-1-4-6 2-1 58-1z" fill="#FCA908"/>
<path transform="translate(622,450)" d="m0 0h2v5l1 2-2 10-6 11-4 4v-2h-3l1-7 6-9 2-8 1-5z" fill="#270703"/>
<path transform="translate(639,404)" d="m0 0 2 4 1 6v13l-2 4h-2l-3 4-5 22h-3l2-11 5-16 2-5 1-9 2-3z" fill="#170705"/>
<path transform="translate(325,730)" d="m0 0h1l1 33 5 5h4v-5h1v15h-9v6h-1l-2-18z" fill="#FCAC09"/>
<path transform="translate(336,718)" d="m0 0h1l-1 34h-1v-13h-2l-3 3-2-1-2-12v-2l3 1 1-4 5-4z" fill="#FDC90C"/>
<path transform="translate(312,782)" d="m0 0 3 2 1 6h2l3 19 3 10v9l-3-4-4-13-3-12z" fill="#FDD707"/>
<path transform="translate(369,626)" d="m0 0h2l-2 5-8 14-1-2h-7l-2 1-1-3 4-7 4-2 9-5z" fill="#FDC60C"/>
<path transform="translate(324,642)" d="m0 0 4 1-1 5-3 5 1 5-4 8h-1v-6l-2 6h-1l-1-5h-2v-5z" fill="#250703"/>
<path transform="translate(311,784)" d="m0 0h2l2 15 5 20 3 7 2-2 2 2 1 13-5-2-6-19-5-23z" fill="#F97002"/>
<path transform="translate(314,904)" d="m0 0 3 1 7 8 7 9-4 1-5-2-5-4-2-6-4-2-2-4z" fill="#270703"/>
<path transform="translate(582,517)" d="m0 0 5 1v7l-2 4-5 4h-2l-1-7-5-4z" fill="#FD7E02"/>
<path transform="translate(305,873)" d="m0 0 4 1 4 12 7 11 5 6h-3l-8-7-7-14z" fill="#0E0707"/>
<path transform="translate(393,880)" d="m0 0 2 3v2l4 1v19l-2 1-3-6-1-5z" fill="#FDDB05"/>
<path transform="translate(346,665)" d="m0 0h5l-3 10-5 16-2 9h-1l-1-12 3-5 3-6 1-5h-3l-1-4z" fill="#FDC80B"/>
<path transform="translate(459,551)" d="m0 0 5 1 1-1h6l-4 4-10 3-8 4-3-1-1-1 2-4 8-3z" fill="#250703"/>
<path transform="translate(703,704)" d="m0 0 1 2-18 10-9 6-7 6-6 4-3 1-2 5-4 4 2-6 3-5 14-9 5-5z" fill="#270703"/>
<path transform="translate(396,591)" d="m0 0 1 2-8 18-4 13h-1v-12l3-9 7-10z" fill="#FB5902"/>
<path transform="translate(314,767)" d="m0 0h1l9 45 2 13-2-1-4-15-4-24-2-10z" fill="#F85802"/>
<path transform="translate(559,607)" d="m0 0 4 1 1 6 4 1-7 2h-6l-4-8z" fill="#FD7E02"/>
<path transform="translate(580,502)" d="m0 0 3 1v4l3-1v3l-4 2h-7l-5-2-3-2 6-3z" fill="#270703"/>
<path transform="translate(769,618)" d="m0 0 2 3 1 4v10l-1 2-4-2-2-2v5l-1-2h-2l2-6z" fill="#2A0702"/>
<path transform="translate(398,985)" d="m0 0 20 8v4l-7-1v-2l-9-3-3-2z" fill="#270703"/>
<path transform="translate(319,801)" d="m0 0h1l2 10 2 8v9l-3-4-4-13 1-4z" fill="#FDCD06"/>
<path transform="translate(501,542)" d="m0 0h2l-1 3-12 4-14 7 1-4 15-7z" fill="#0E0707"/>
<path transform="translate(365,636)" d="m0 0 1 2v9l-4 5h-4l-1 3-1-2z" fill="#FE9202"/>
<path transform="translate(321,824)" d="m0 0 2 2 2-2 2 2 1 13-5-2-2-6z" fill="#FC7702"/>
<path transform="translate(338,624)" d="m0 0 5 2-2 4-6 8-2-3 1-7z" fill="#120706"/>
<path transform="translate(627,460)" d="m0 0h2v8l-1 2h3v6l-1 2-4-1-1-5 1-10z" fill="#110706"/>
<path transform="translate(360,907)" d="m0 0h3l13 21-1 2-8-10-7-10z" fill="#F74202"/>
<path transform="translate(457,649)" d="m0 0 5 1 2 7-5 3-3-5-2-1 2-4z" fill="#FDDC05"/>
<path transform="translate(603,498)" d="m0 0 1 2 2 1-4 5-4 3-5 1-1-2 5-5z" fill="#140706"/>
<path transform="translate(343,839)" d="m0 0 2 1 4 10-1 3-2 4-5-14v-3z" fill="#FBA50A"/>
<path transform="translate(542,524)" d="m0 0 2 3-12 4-6 4h-8l2-2 8-3 8-4z" fill="#0E0707"/>
<path transform="translate(344,835)" d="m0 0 2 2 7 21-1 3-1-4-3 1-1-1v-5l1-2-4-10z" fill="#FEDD05"/>
<path transform="translate(633,435)" d="m0 0h1l-1 10-3 12h-3l2-11 3-10z" fill="#0E0707"/>
<path transform="translate(325,648)" d="m0 0v3l-1 4 1 3-4 8h-1v-6l-2 6h-1l1-7 6-10z" fill="#0F0706"/>
<path transform="translate(395,871)" d="m0 0h2v2h2l1 7-1 2-4-1-1-2v-7z" fill="#FEDD05"/>
<path transform="translate(474,855)" d="m0 0 3 2-6 4-5 3-3 5-1-4 3-5 9-3z" fill="#270703"/>
<path transform="translate(558,619)" d="m0 0 4 1 3 2-11 1h-14l4-2 11-1z" fill="#330902"/>
<path transform="translate(312,782)" d="m0 0 3 2 2 6v11l-2-3-2-7z" fill="#FEED8D"/>
<path transform="translate(604,484)" d="m0 0 2 4-2 5-4 1-2 1 1-5z" fill="#270703"/>
<path transform="translate(396,591)" d="m0 0 1 2-4 9-5 3-2 1 2-5 7-9z" fill="#FC6E02"/>
<path transform="translate(334,626)" d="m0 0 1 2-3 11-5-1 2-6h2l2-5z" fill="#240703"/>
<path transform="translate(563,737)" d="m0 0h20v1l-18 1 2 4 3 2-5-1-4-6z" fill="#FDC30A"/>
<path transform="translate(507,531)" d="m0 0 4 1 1 2-9 4-1-5z" fill="#270703"/>
<path transform="translate(633,385)" d="m0 0 11 6-2 1-3-1-1 2-2 1z" fill="#F32F02"/>
<path transform="translate(632,494)" d="m0 0 2 4v3l-3 3h-5z" fill="#FB4702"/>
<path transform="translate(381,584)" d="m0 0 3 1-1 4-3 3-2-1v-2l-2-2z" fill="#270703"/>
<path transform="translate(368,917)" d="m0 0 3 3 5 8-1 2-8-10z" fill="#F33002"/>
<path transform="translate(453,652)" d="m0 0 1 2 4 2 1 5-3 1-3-7z" fill="#FDCC0E"/>
<path transform="translate(447,974)" d="m0 0 2 4v4h-4v-7z" fill="#270703"/>
<path transform="translate(317,811)" d="m0 0h1l3 9v8l-2-3-2-7z" fill="#F96302"/>
<path transform="translate(347,852)" d="m0 0 4 1 2 5-1 3-1-4-3 1-1-1z" fill="#FDD707"/>
<path transform="translate(631,757)" d="m0 0h2l1 3-4 4-4 2 2-4z" fill="#2D0802"/>
</svg>
